<?xml version="1.0" encoding="UTF-8"?>
<svg xmlns="http://www.w3.org/2000/svg" xmlns:xlink="http://www.w3.org/1999/xlink" viewBox="0 0 66.82 62.93">
  <defs>
    <style>
      .cls-1 {
        fill: #c70a11;
      }

      .cls-2 {
        fill: #123655;
      }

      .cls-3 {
        fill: #c3dceb;
      }

      .cls-4 {
        isolation: isolate;
      }

      .cls-5 {
        fill: #235982;
      }

      .cls-6 {
        fill: #ffae0d;
      }

      .cls-7 {
        fill: #b1a8a1;
      }

      .cls-8 {
        fill: #f3eae1;
      }

      .cls-9 {
        clip-path: url(#clippath);
      }

      .cls-10 {
        fill: #9ec4d9;
      }

      .cls-11 {
        fill: #a69990;
      }

      .cls-12 {
        fill: #53820e;
      }

      .cls-13 {
        fill: url(#linear-gradient);
      }

      .cls-14 {
        fill: #ad825a;
      }

      .cls-15 {
        fill: #ede4dc;
        mix-blend-mode: multiply;
      }

      .cls-16 {
        fill: #c49568;
      }

      .cls-17 {
        fill: #ad0007;
      }

      .cls-18 {
        fill: #f0850c;
      }
    </style>
    <clipPath id="clippath">
      <polygon class="cls-14" points="41.49 3.21 25.48 15.26 25.48 44.42 57.5 44.42 57.5 15.26 41.49 3.21"/>
    </clipPath>
    <linearGradient id="linear-gradient" x1="69.4" y1="-168.46" x2="81.74" y2="-168.46" gradientTransform="translate(31.01 221.36) rotate(-150) scale(1 -1)" gradientUnits="userSpaceOnUse">
      <stop offset="0" stop-color="#fd6120"/>
      <stop offset=".01" stop-color="#fb5f1f"/>
      <stop offset=".32" stop-color="#ea4d1b"/>
      <stop offset=".64" stop-color="#e04218"/>
      <stop offset="1" stop-color="#dd3f18"/>
    </linearGradient>
  </defs>
  <g class="cls-4">
    <g id="Layer_2" data-name="Layer 2">
      <g id="Layer_1-2" data-name="Layer 1">
        <g>
          <g>
            <rect class="cls-16" x="2.18" y="16.79" width="26.39" height="26.11"/>
            <polygon class="cls-1" points="4.08 3.96 5.52 3.96 47.67 3.96 50.38 3.96 54.46 17.08 47.67 17.08 5.52 17.08 0 17.08 4.08 3.96"/>
            <g>
              <rect class="cls-16" x="48.86" y="3.5" width="5.79" height="10.18"/>
              <g>
                <polygon class="cls-14" points="41.49 3.21 25.48 15.26 25.48 44.42 57.5 44.42 57.5 15.26 41.49 3.21"/>
                <g class="cls-9">
                  <g>
                    <rect class="cls-16" x="24.6" y="38.93" width="8.79" height="4.65"/>
                    <path class="cls-16" d="M33.82,44h-9.66v-5.49h9.66v5.49Zm-8.78-.85h7.91v-3.8h-7.91v3.8Z"/>
                  </g>
                  <g>
                    <rect class="cls-16" x="33.38" y="38.93" width="8.78" height="4.65"/>
                    <path class="cls-16" d="M42.6,44h-9.66v-5.49h9.66v5.49Zm-8.78-.85h7.91v-3.8h-7.91v3.8Z"/>
                  </g>
                  <g>
                    <rect class="cls-16" x="42.16" y="38.93" width="8.78" height="4.65"/>
                    <path class="cls-16" d="M51.38,44h-9.66v-5.49h9.66v5.49Zm-8.78-.85h7.9v-3.8h-7.9v3.8Z"/>
                  </g>
                  <g>
                    <rect class="cls-16" x="50.95" y="38.93" width="8.78" height="4.65"/>
                    <path class="cls-16" d="M60.17,44h-9.66v-5.49h9.66v5.49Zm-8.78-.85h7.9v-3.8h-7.9v3.8Z"/>
                  </g>
                  <g>
                    <rect class="cls-16" x="60.61" y="38.93" width="8.78" height="4.65"/>
                    <path class="cls-16" d="M69.83,44h-9.66v-5.49h9.66v5.49Zm-8.78-.85h7.9v-3.8h-7.9v3.8Z"/>
                  </g>
                  <g>
                    <rect class="cls-16" x="21.08" y="34.29" width="8.79" height="4.64"/>
                    <path class="cls-16" d="M30.31,39.35h-9.66v-5.48h9.66v5.48Zm-8.78-.85h7.91v-3.8h-7.91v3.8Z"/>
                  </g>
                  <g>
                    <rect class="cls-16" x="29.87" y="34.29" width="8.78" height="4.64"/>
                    <path class="cls-16" d="M39.09,39.35h-9.66v-5.48h9.66v5.48Zm-8.78-.85h7.9v-3.8h-7.9v3.8Z"/>
                  </g>
                  <g>
                    <rect class="cls-16" x="38.65" y="34.29" width="8.78" height="4.64"/>
                    <path class="cls-16" d="M47.87,39.35h-9.66v-5.48h9.66v5.48Zm-8.79-.85h7.9v-3.8h-7.9v3.8Z"/>
                  </g>
                  <g>
                    <rect class="cls-16" x="47.43" y="34.29" width="8.78" height="4.64"/>
                    <path class="cls-16" d="M56.65,39.35h-9.66v-5.48h9.66v5.48Zm-8.78-.85h7.9v-3.8h-7.9v3.8Z"/>
                  </g>
                  <g>
                    <rect class="cls-16" x="56.22" y="34.29" width="8.78" height="4.64"/>
                    <path class="cls-16" d="M65.43,39.35h-9.66v-5.48h9.66v5.48Zm-8.78-.85h7.91v-3.8h-7.91v3.8Z"/>
                  </g>
                  <g>
                    <rect class="cls-16" x="24.31" y="29.65" width="8.78" height="4.64"/>
                    <path class="cls-16" d="M33.53,34.71h-9.66v-5.48h9.66v5.48Zm-8.79-.84h7.9v-3.8h-7.9v3.8Z"/>
                  </g>
                  <g>
                    <rect class="cls-16" x="33.09" y="29.65" width="8.78" height="4.64"/>
                    <path class="cls-16" d="M42.31,34.71h-9.66v-5.48h9.66v5.48Zm-8.78-.84h7.9v-3.8h-7.9v3.8Z"/>
                  </g>
                  <g>
                    <rect class="cls-16" x="41.87" y="29.65" width="8.79" height="4.64"/>
                    <path class="cls-16" d="M51.09,34.71h-9.66v-5.48h9.66v5.48Zm-8.79-.84h7.91v-3.8h-7.91v3.8Z"/>
                  </g>
                  <g>
                    <rect class="cls-16" x="50.66" y="29.65" width="8.78" height="4.64"/>
                    <path class="cls-16" d="M59.88,34.71h-9.66v-5.48h9.66v5.48Zm-8.78-.84h7.91v-3.8h-7.91v3.8Z"/>
                  </g>
                  <g>
                    <rect class="cls-16" x="59.44" y="29.65" width="8.78" height="4.64"/>
                    <path class="cls-16" d="M68.65,34.71h-9.65v-5.48h9.65v5.48Zm-8.78-.84h7.9v-3.8h-7.9v3.8Z"/>
                  </g>
                  <g>
                    <rect class="cls-16" x="19.92" y="25" width="8.78" height="4.65"/>
                    <path class="cls-16" d="M29.13,30.07h-9.66v-5.49h9.66v5.49Zm-8.78-.85h7.9v-3.8h-7.9v3.8Z"/>
                  </g>
                  <g>
                    <rect class="cls-16" x="28.7" y="25" width="8.78" height="4.65"/>
                    <path class="cls-16" d="M37.92,30.07h-9.66v-5.49h9.66v5.49Zm-8.78-.85h7.91v-3.8h-7.91v3.8Z"/>
                  </g>
                  <g>
                    <rect class="cls-16" x="37.48" y="25" width="8.78" height="4.65"/>
                    <path class="cls-16" d="M46.7,30.07h-9.66v-5.49h9.66v5.49Zm-8.78-.85h7.91v-3.8h-7.91v3.8Z"/>
                  </g>
                  <g>
                    <rect class="cls-16" x="46.26" y="25" width="8.79" height="4.65"/>
                    <path class="cls-16" d="M55.48,30.07h-9.66v-5.49h9.66v5.49Zm-8.78-.85h7.9v-3.8h-7.9v3.8Z"/>
                  </g>
                  <g>
                    <rect class="cls-16" x="55.05" y="25" width="8.78" height="4.65"/>
                    <path class="cls-16" d="M64.27,30.07h-9.66v-5.49h9.66v5.49Zm-8.78-.85h7.9v-3.8h-7.9v3.8Z"/>
                  </g>
                  <g>
                    <rect class="cls-16" x="23.13" y="20.36" width="8.79" height="4.64"/>
                    <path class="cls-16" d="M32.36,25.43h-9.66v-5.49h9.66v5.49Zm-8.78-.85h7.9v-3.79h-7.9v3.79Z"/>
                  </g>
                  <g>
                    <rect class="cls-16" x="31.92" y="20.36" width="8.78" height="4.64"/>
                    <path class="cls-16" d="M41.14,25.43h-9.66v-5.49h9.66v5.49Zm-8.78-.85h7.91v-3.79h-7.91v3.79Z"/>
                  </g>
                  <g>
                    <rect class="cls-16" x="40.7" y="20.36" width="8.78" height="4.64"/>
                    <path class="cls-16" d="M49.92,25.43h-9.66v-5.49h9.66v5.49Zm-8.79-.85h7.91v-3.79h-7.91v3.79Z"/>
                  </g>
                  <g>
                    <rect class="cls-16" x="49.48" y="20.36" width="8.78" height="4.64"/>
                    <path class="cls-16" d="M58.7,25.43h-9.66v-5.49h9.66v5.49Zm-8.78-.85h7.9v-3.79h-7.9v3.79Z"/>
                  </g>
                  <g>
                    <rect class="cls-16" x="58.26" y="20.36" width="8.79" height="4.64"/>
                    <path class="cls-16" d="M67.48,25.43h-9.66v-5.49h9.66v5.49Zm-8.78-.85h7.9v-3.79h-7.9v3.79Z"/>
                  </g>
                  <g>
                    <rect class="cls-16" x="18.74" y="15.72" width="8.78" height="4.64"/>
                    <path class="cls-16" d="M27.96,20.79h-9.66v-5.49h9.66v5.49Zm-8.78-.85h7.91v-3.79h-7.91v3.79Z"/>
                  </g>
                  <g>
                    <rect class="cls-16" x="27.53" y="15.72" width="8.78" height="4.64"/>
                    <path class="cls-16" d="M36.75,20.79h-9.66v-5.49h9.66v5.49Zm-8.78-.85h7.9v-3.79h-7.9v3.79Z"/>
                  </g>
                  <g>
                    <rect class="cls-16" x="36.31" y="15.72" width="8.78" height="4.64"/>
                    <path class="cls-16" d="M45.53,20.79h-9.66v-5.49h9.66v5.49Zm-8.79-.85h7.9v-3.79h-7.9v3.79Z"/>
                  </g>
                  <g>
                    <rect class="cls-16" x="45.09" y="15.72" width="8.78" height="4.64"/>
                    <path class="cls-16" d="M54.31,20.79h-9.66v-5.49h9.66v5.49Zm-8.78-.85h7.9v-3.79h-7.9v3.79Z"/>
                  </g>
                  <g>
                    <rect class="cls-16" x="53.87" y="15.72" width="8.78" height="4.64"/>
                    <path class="cls-16" d="M63.1,20.79h-9.66v-5.49h9.66v5.49Zm-8.78-.85h7.9v-3.79h-7.9v3.79Z"/>
                  </g>
                  <g>
                    <rect class="cls-16" x="21.96" y="11.08" width="8.78" height="4.64"/>
                    <path class="cls-16" d="M31.19,16.14h-9.66v-5.49h9.66v5.49Zm-8.78-.85h7.9v-3.8h-7.9v3.8Z"/>
                  </g>
                  <g>
                    <rect class="cls-16" x="30.75" y="11.08" width="8.79" height="4.64"/>
                    <path class="cls-16" d="M39.97,16.14h-9.66v-5.49h9.66v5.49Zm-8.78-.85h7.9v-3.8h-7.9v3.8Z"/>
                  </g>
                  <g>
                    <rect class="cls-16" x="39.53" y="11.08" width="8.78" height="4.64"/>
                    <path class="cls-16" d="M48.75,16.14h-9.66v-5.49h9.66v5.49Zm-8.78-.85h7.9v-3.8h-7.9v3.8Z"/>
                  </g>
                  <g>
                    <rect class="cls-16" x="48.31" y="11.08" width="8.78" height="4.64"/>
                    <path class="cls-16" d="M57.54,16.14h-9.66v-5.49h9.66v5.49Zm-8.79-.85h7.9v-3.8h-7.9v3.8Z"/>
                  </g>
                  <g>
                    <rect class="cls-16" x="57.1" y="11.08" width="8.78" height="4.64"/>
                    <path class="cls-16" d="M66.32,16.14h-9.67v-5.49h9.67v5.49Zm-8.78-.85h7.9v-3.8h-7.9v3.8Z"/>
                  </g>
                  <g>
                    <rect class="cls-16" x="17.57" y="6.43" width="8.78" height="4.64"/>
                    <path class="cls-16" d="M26.79,11.5h-9.66V6.01h9.66v5.49Zm-8.78-.85h7.91v-3.8h-7.91v3.8Z"/>
                  </g>
                  <g>
                    <rect class="cls-16" x="26.35" y="6.43" width="8.79" height="4.64"/>
                    <path class="cls-16" d="M35.58,11.5h-9.66V6.01h9.66v5.49Zm-8.78-.85h7.91v-3.8h-7.91v3.8Z"/>
                  </g>
                  <g>
                    <rect class="cls-16" x="35.14" y="6.43" width="8.78" height="4.64"/>
                    <path class="cls-16" d="M44.36,11.5h-9.66V6.01h9.66v5.49Zm-8.78-.85h7.9v-3.8h-7.9v3.8Z"/>
                  </g>
                  <g>
                    <rect class="cls-16" x="43.92" y="6.43" width="8.78" height="4.64"/>
                    <path class="cls-16" d="M53.14,11.5h-9.66V6.01h9.66v5.49Zm-8.78-.85h7.9v-3.8h-7.9v3.8Z"/>
                  </g>
                  <g>
                    <rect class="cls-16" x="52.7" y="6.43" width="8.78" height="4.64"/>
                    <path class="cls-16" d="M61.92,11.5h-9.66V6.01h9.66v5.49Zm-8.78-.85h7.9v-3.8h-7.9v3.8Z"/>
                  </g>
                  <g>
                    <rect class="cls-16" x="20.79" y="1.79" width="8.79" height="4.64"/>
                    <path class="cls-16" d="M30.02,6.86h-9.66V1.37h9.66V6.86Zm-8.79-.85h7.91V2.22h-7.91v3.79Z"/>
                  </g>
                  <g>
                    <rect class="cls-16" x="29.58" y="1.79" width="8.78" height="4.64"/>
                    <path class="cls-16" d="M38.8,6.86h-9.66V1.37h9.66V6.86Zm-8.78-.85h7.9V2.22h-7.9v3.79Z"/>
                  </g>
                  <g>
                    <rect class="cls-16" x="38.36" y="1.79" width="8.78" height="4.64"/>
                    <path class="cls-16" d="M47.58,6.86h-9.66V1.37h9.66V6.86Zm-8.78-.85h7.91V2.22h-7.91v3.79Z"/>
                  </g>
                  <g>
                    <rect class="cls-16" x="47.14" y="1.79" width="8.78" height="4.64"/>
                    <path class="cls-16" d="M56.36,6.86h-9.66V1.37h9.66V6.86Zm-8.78-.85h7.91V2.22h-7.91v3.79Z"/>
                  </g>
                  <g>
                    <rect class="cls-16" x="55.92" y="1.79" width="8.78" height="4.64"/>
                    <path class="cls-16" d="M65.14,6.86h-9.66V1.37h9.66V6.86Zm-8.78-.85h7.9V2.22h-7.9v3.79Z"/>
                  </g>
                  <g>
                    <rect class="cls-16" x="16.4" y="-2.85" width="8.78" height="4.64"/>
                    <path class="cls-16" d="M25.62,2.22H15.96V-3.27h9.66V2.22Zm-8.79-.85h7.91V-2.43h-7.91V1.37Z"/>
                  </g>
                  <g>
                    <rect class="cls-16" x="25.19" y="-2.85" width="8.78" height="4.64"/>
                    <path class="cls-16" d="M34.41,2.22h-9.66V-3.27h9.66V2.22Zm-8.78-.85h7.91V-2.43h-7.91V1.37Z"/>
                  </g>
                  <g>
                    <rect class="cls-16" x="33.97" y="-2.85" width="8.79" height="4.64"/>
                    <path class="cls-16" d="M43.19,2.22h-9.66V-3.27h9.66V2.22Zm-8.78-.85h7.9V-2.43h-7.9V1.37Z"/>
                  </g>
                  <g>
                    <rect class="cls-16" x="42.75" y="-2.85" width="8.78" height="4.64"/>
                    <path class="cls-16" d="M51.97,2.22h-9.66V-3.27h9.66V2.22Zm-8.78-.85h7.9V-2.43h-7.9V1.37Z"/>
                  </g>
                  <g>
                    <rect class="cls-16" x="51.53" y="-2.85" width="8.78" height="4.64"/>
                    <path class="cls-16" d="M60.76,2.22h-9.66V-3.27h9.66V2.22Zm-8.79-.85h7.91V-2.43h-7.91V1.37Z"/>
                  </g>
                </g>
              </g>
              <polygon class="cls-1" points="22.35 18.29 20.73 16.21 41.49 0 62.24 16.21 60.63 18.29 41.49 3.35 22.35 18.29"/>
              <rect class="cls-14" x="48.23" y="2" width="7.03" height="2.01"/>
              <rect class="cls-8" x="36.61" y="22.69" width="9.75" height="19.98"/>
              <rect class="cls-7" x="23.35" y="41.97" width="36.28" height="3.04"/>
              <g>
                <path class="cls-8" d="M45.63,13.68c0,2.29-1.85,4.14-4.15,4.14s-4.14-1.85-4.14-4.14,1.86-4.15,4.14-4.15,4.15,1.86,4.15,4.15Z"/>
                <path class="cls-3" d="M44.79,13.68c0,1.82-1.48,3.29-3.3,3.29s-3.29-1.47-3.29-3.29,1.47-3.29,3.29-3.29,3.3,1.47,3.3,3.29Z"/>
                <path class="cls-10" d="M41.51,13.68c0,1.82-.03,3.29-.03,3.29-1.82,0-3.29-1.47-3.29-3.29s1.47-3.29,3.29-3.29c0,0,.03,1.47,.03,3.29Z"/>
              </g>
              <rect class="cls-8" x="28.66" y="21.76" width="4.9" height="15.96"/>
              <polygon class="cls-15" points="41.51 3.23 41.49 3.21 25.48 15.26 25.48 44.42 41.51 44.42 41.51 3.23"/>
              <rect class="cls-3" x="37.91" y="24.62" width="7.17" height="5.12"/>
              <rect class="cls-3" x="37.91" y="31.04" width="7.17" height="3.68"/>
              <g>
                <rect class="cls-10" x="29.32" y="31.17" width="3.59" height="4.86"/>
                <rect class="cls-10" x="29.32" y="27.3" width="3.59" height="4.87"/>
                <rect class="cls-10" x="29.32" y="23.44" width="3.59" height="4.87"/>
              </g>
              <g>
                <rect class="cls-8" x="49.41" y="21.76" width="4.9" height="15.96"/>
                <g>
                  <rect class="cls-3" x="50.07" y="31.17" width="3.59" height="4.86"/>
                  <rect class="cls-3" x="50.07" y="27.3" width="3.59" height="4.87"/>
                  <rect class="cls-3" x="50.07" y="23.44" width="3.59" height="4.87"/>
                </g>
              </g>
              <g>
                <rect class="cls-8" x="7.92" y="21.64" width="4.9" height="15.96"/>
                <g>
                  <rect class="cls-3" x="8.58" y="31.05" width="3.59" height="4.86"/>
                  <rect class="cls-3" x="8.58" y="27.18" width="3.59" height="4.87"/>
                  <rect class="cls-3" x="8.58" y="23.32" width="3.59" height="4.87"/>
                </g>
              </g>
              <g>
                <rect class="cls-8" x="16.99" y="21.63" width="4.9" height="15.96"/>
                <g>
                  <rect class="cls-3" x="17.65" y="31.04" width="3.59" height="4.86"/>
                  <rect class="cls-3" x="17.65" y="27.18" width="3.59" height="4.87"/>
                  <rect class="cls-3" x="17.65" y="23.32" width="3.59" height="4.87"/>
                </g>
              </g>
              <g>
                <rect class="cls-10" x="37.91" y="24.62" width="3.61" height="5.12"/>
                <rect class="cls-10" x="37.91" y="31.04" width="3.61" height="3.68"/>
              </g>
              <polygon class="cls-17" points="41.51 .02 41.49 0 20.73 16.21 22.35 18.29 41.49 3.35 41.51 3.36 41.51 .02"/>
              <rect class="cls-11" x="1.42" y="41.97" width="40.09" height="3.04"/>
            </g>
          </g>
          <path class="cls-3" d="M20.7,31H62.55c1.33,0,2.41,1.08,2.41,2.41v27.1c0,1.33-1.08,2.41-2.41,2.41H20.7c-1.33,0-2.41-1.08-2.41-2.41v-27.1c0-1.33,1.08-2.42,2.42-2.42Z"/>
          <path class="cls-10" d="M41.62,31H20.7c-1.33,0-2.41,1.09-2.41,2.41v27.1c0,1.33,1.08,2.42,2.41,2.42h20.93V31Z"/>
          <g>
            <path class="cls-2" d="M25.46,41.39c-.14,.1-.32,.17-.53,.21-.21,.04-.44,.06-.66,.06-.28,0-.54-.04-.78-.13-.25-.08-.46-.22-.65-.41-.19-.19-.34-.43-.45-.74-.11-.3-.17-.67-.17-1.1s.06-.82,.19-1.12c.12-.3,.28-.55,.48-.73,.2-.18,.42-.32,.66-.4,.24-.08,.49-.12,.73-.12,.26,0,.48,.02,.66,.05,.18,.03,.33,.08,.45,.12l-.18,.76c-.1-.05-.22-.08-.36-.1-.14-.02-.3-.03-.5-.03-.36,0-.65,.13-.87,.38-.22,.26-.33,.66-.33,1.2,0,.24,.03,.45,.08,.64,.05,.19,.13,.36,.24,.5,.11,.14,.24,.24,.4,.32,.16,.08,.34,.12,.55,.12,.2,0,.36-.02,.5-.06,.13-.04,.25-.09,.35-.15l.18,.73Z"/>
            <path class="cls-2" d="M28.57,39.67h-1.67v1.91h-.89v-4.56h.89v1.86h1.67v-1.86h.89v4.56h-.89v-1.91Z"/>
            <path class="cls-2" d="M30.26,37.01h2.71v.79h-1.81v1.06h1.65v.8h-1.65v1.12h1.84v.79h-2.74v-4.56Z"/>
            <path class="cls-2" d="M36.75,41.39c-.14,.1-.32,.17-.53,.21-.21,.04-.44,.06-.66,.06-.27,0-.53-.04-.78-.13-.25-.08-.46-.22-.65-.41-.19-.19-.33-.43-.45-.74-.11-.3-.17-.67-.17-1.1s.06-.82,.19-1.12c.12-.3,.29-.55,.48-.73,.2-.18,.42-.32,.66-.4,.24-.08,.49-.12,.73-.12,.26,0,.48,.02,.66,.05,.18,.03,.33,.08,.45,.12l-.18,.76c-.1-.05-.22-.08-.36-.1-.14-.02-.3-.03-.5-.03-.36,0-.65,.13-.87,.38-.22,.26-.33,.66-.33,1.2,0,.24,.03,.45,.08,.64,.05,.19,.13,.36,.24,.5,.11,.14,.24,.24,.4,.32,.16,.08,.34,.12,.55,.12,.2,0,.36-.02,.5-.06,.13-.04,.25-.09,.35-.15l.18,.73Z"/>
            <path class="cls-2" d="M38.43,39.63h-.23v1.95h-.89v-4.56h.89v2.02l.21-.09,1.26-1.93h1.02l-1.33,1.92-.35,.25,.37,.25,1.52,2.15h-1.1l-1.35-1.95Z"/>
          </g>
          <rect class="cls-2" x="22.84" y="44.89" width="15.74" height="1.38"/>
          <rect class="cls-5" x="47.79" y="44.89" width="13.21" height="1.38"/>
          <rect class="cls-17" x="22.84" y="53.4" width="21.73" height="1.38"/>
          <rect class="cls-2" x="22.84" y="56.62" width="21.73" height="1.38"/>
          <rect class="cls-2" x="22.84" y="47.77" width="20.4" height="1.38"/>
          <rect class="cls-17" x="52.62" y="47.77" width="8.38" height="1.38"/>
          <path class="cls-5" d="M59.62,51.79h-11.83v6.21h13.21v-6.21h-1.38Zm0,4.83h-10.45v-3.45h10.45v3.45Z"/>
          <g>
            <path class="cls-12" d="M64.24,14.6s2.33,.65,2.57,4.46c.19,2.96-5.29,19.4-10.44,20.15,0,0-.58-.87,1.67-3.44,2.26-2.57,3.51-4.11,5.08-8.1,1.56-3.98,2.62-8.99,.83-9.71l.29-3.36Z"/>
            <path class="cls-12" d="M45.73,33.47c-6.51,11.28-10.82,23.78-8.12,25.34,2.7,1.56,11.37-8.42,17.88-19.7,6.51-11.28,11.62-25.17,8.93-26.73-2.69-1.56-12.17,9.82-18.69,21.1Z"/>
            <path class="cls-6" d="M42.74,49.92c1.32,.77,2.41,1.76,3.24,2.86-3.69,4.31-6.91,6.87-8.37,6.03-1.46-.84-.86-4.92,1.04-10.26,1.37,.16,2.77,.61,4.1,1.37Z"/>
            <path class="cls-13" d="M44.46,34.6c-.59,1.03-.9,1.95,.25,2.62l8.05,4.65c1.15,.66,1.8-.07,2.39-1.09h0c.59-1.02,.9-1.95-.25-2.62l-8.05-4.65c-1.15-.67-1.8,.07-2.39,1.09h0Z"/>
            <path class="cls-6" d="M44.46,34.6c-.59,1.03-.9,1.95,.25,2.62l8.05,4.65c1.15,.66,1.8-.07,2.39-1.09h0c.59-1.02,.9-1.95-.25-2.62l-8.05-4.65c-1.15-.67-1.8,.07-2.39,1.09h0Z"/>
            <path class="cls-15" d="M55.49,39.1c-6.51,11.28-15.19,21.26-17.88,19.7-.14-.08-.26-.2-.36-.34L64.42,12.37c2.7,1.56-2.41,15.45-8.93,26.73Z"/>
            <g>
              <path class="cls-6" d="M38.64,48.54c1.25,.15,2.53,.55,3.75,1.19l-5.14,8.72c-.96-1.31-.31-5.09,1.4-9.92Z"/>
              <path class="cls-6" d="M46.85,33.51l3.81,2.2-2.18,3.69-3.78-2.18c-1.15-.67-.84-1.59-.25-2.62,.59-1.02,1.24-1.76,2.39-1.09Z"/>
              <path class="cls-18" d="M45.98,52.78c-3.69,4.31-6.91,6.87-8.37,6.03-.14-.08-.26-.2-.36-.34l5.14-8.72c.12,.06,.24,.11,.35,.18,1.32,.77,2.41,1.76,3.24,2.86Z"/>
              <path class="cls-18" d="M54.89,38.16c1.15,.66,.84,1.59,.25,2.62-.59,1.03-1.24,1.76-2.39,1.09l-4.27-2.47,2.18-3.69,4.24,2.45Z"/>
            </g>
            <path class="cls-5" d="M38.26,57.67c.47,.27,.86,.62,1.15,1.01-1.3,1.53-2.44,2.43-2.96,2.13-.52-.3-.3-1.74,.37-3.63,.48,.06,.98,.22,1.45,.49Z"/>
            <path class="cls-2" d="M36.45,60.82s-.02-.02-.02-.02l1.84-3.12c.47,.27,.86,.62,1.15,1.01-1.3,1.53-2.44,2.43-2.96,2.13Z"/>
          </g>
        </g>
      </g>
    </g>
  </g>
</svg>