<?xml version="1.0" encoding="UTF-8"?>
<svg xmlns="http://www.w3.org/2000/svg" viewBox="0 0 66.46 70.42">
  <defs>
    <style>
      .cls-1 {
        fill: #c70a11;
      }

      .cls-2 {
        fill: #fff;
      }

      .cls-3 {
        fill: #123655;
      }

      .cls-4, .cls-5 {
        fill: #ede4dc;
      }

      .cls-6 {
        fill: #c3dceb;
      }

      .cls-7 {
        isolation: isolate;
      }

      .cls-8 {
        fill: #426908;
      }

      .cls-9 {
        fill: #235982;
      }

      .cls-10 {
        fill: #ffae0d;
      }

      .cls-11 {
        fill: #8c6139;
      }

      .cls-12 {
        fill: #f3eae1;
      }

      .cls-13 {
        fill: #9ec4d9;
      }

      .cls-14 {
        fill: #53820e;
      }

      .cls-5, .cls-15 {
        mix-blend-mode: multiply;
      }

      .cls-16 {
        fill: #ad0007;
      }

      .cls-17 {
        fill: #f0850c;
      }
    </style>
  </defs>
  <g class="cls-7">
    <g id="Layer_2" data-name="Layer 2">
      <g id="Layer_1-2" data-name="Layer 1">
        <g>
          <path class="cls-11" d="M36.48,19.42c-1.52,0-3.03-.43-4.36-1.29l.54-.84c2.01,1.3,4.52,1.49,6.7,.51l.41,.91c-1.06,.48-2.18,.71-3.29,.71Z"/>
          <path class="cls-11" d="M39.77,18.68l-.39-.87c1.72-.77,3.03-2.17,3.7-3.93,.67-1.76,.61-3.68-.16-5.4-.77-1.72-2.17-3.03-3.93-3.7-1.76-.67-3.68-.61-5.39,.16l-.39-.87c1.95-.88,4.12-.94,6.12-.18,2,.76,3.58,2.25,4.46,4.2,.88,1.95,.94,4.12,.18,6.12-.76,2-2.25,3.58-4.2,4.46Z"/>
          <path class="cls-6" d="M66.11,36.45c.45-2.82,.55-5.79-.23-8.76-.82-2.83-2.1-5.52-3.82-7.98-1.49-2.13-3.38-4.04-5.49-5.63l1.19-2.77-9.98,1.19,6.02,8.05,1.12-2.6c1.64,1.07,3.13,2.36,4.44,3.87,1.71,1.95,3.09,4.27,4.13,6.71,1.02,2.34,1.39,5.09,1.35,7.82-.04,2.74-.44,5.53-1.19,8.22,1.15-2.56,1.97-5.29,2.45-8.11Z"/>
          <path class="cls-13" d="M26.12,62.76l-2.83-9.64-1.98,2.08c-1.27-1.52-2.36-3.17-3.28-4.94-1.18-2.27-2.02-4.78-2.54-7.3-.51-2.51-.48-5.18-.02-7.81,.47-2.63,1.32-5.23,2.59-7.65-1.62,2.2-2.88,4.7-3.78,7.35-.89,2.65-1.37,5.5-1.23,8.41,.19,2.89,.86,5.67,1.89,8.38,.89,2.31,2.09,4.52,3.51,6.56l-2.1,2.2,9.76,2.37Z"/>
          <g>
            <path class="cls-16" d="M32.17,47.79h25.7c1.22,0,2.2,.99,2.2,2.2v17.99c0,1.22-.99,2.2-2.2,2.2h-25.7c-1.22,0-2.2-.99-2.2-2.2v-17.99c0-1.22,.99-2.2,2.2-2.2Z"/>
            <g class="cls-15">
              <path class="cls-4" d="M32.17,47.79h25.7c1.22,0,2.2,.99,2.2,2.2v17.99c0,1.22-.99,2.2-2.2,2.2h-25.7c-1.22,0-2.2-.99-2.2-2.2v-17.99c0-1.22,.99-2.2,2.2-2.2Z"/>
            </g>
            <g>
              <rect class="cls-14" x="43.96" y="40.95" width="18.4" height="10.11" transform="translate(-15.43 61.41) rotate(-53.53)"/>
              <polygon class="cls-8" points="49.85 50.76 58.67 38.64 54.56 35.6 45.72 47.75 49.85 50.76"/>
              <path class="cls-12" d="M44.97,50.12l6.65,4.91,9.72-13.15-6.65-4.91-9.72,13.15Zm14.31-8.6c-.31,.41-.22,1,.19,1.31,.04,.03,.08,.05,.12,.07l-7.52,10.17s-.06-.06-.1-.09c-.42-.31-1-.22-1.31,.2-.03,.04-.05,.08-.07,.12l-3.66-2.71s.06-.06,.09-.1c.3-.41,.22-1-.2-1.31-.04-.03-.08-.05-.12-.07l7.52-10.17s.06,.06,.1,.09c.42,.31,1,.22,1.31-.2,.03-.04,.05-.08,.07-.12l3.66,2.71s-.06,.06-.09,.1Z"/>
              <g>
                <path class="cls-12" d="M53.95,46.01c-.12,.03-.25,.09-.39,.16l.83,.61c.09-.15,.12-.29,.1-.41s-.09-.22-.2-.31c-.1-.08-.21-.09-.33-.06Z"/>
                <path class="cls-2" d="M52.04,45.78c.09,.07,.2,.09,.32,.07,.12-.03,.24-.08,.38-.15l-.77-.57c-.1,.15-.14,.28-.12,.38,.03,.11,.09,.19,.19,.27Z"/>
                <path class="cls-12" d="M50.78,44.17c-.98,1.33-.7,3.21,.63,4.19,1.33,.98,3.21,.7,4.2-.63,.98-1.33,.7-3.21-.63-4.19-1.33-.98-3.21-.7-4.19,.63Zm4.4,1.96c.05,.27,.01,.54-.13,.83l.44,.32-.36,.49-.41-.3c-.14,.17-.27,.32-.41,.43-.13,.11-.25,.19-.34,.23l-.4-.58c.08-.03,.17-.08,.28-.16,.11-.08,.22-.18,.33-.32l-.95-.71c-.12,.07-.24,.13-.36,.18-.12,.06-.25,.09-.38,.11-.13,.02-.27,.01-.41-.02-.14-.03-.28-.1-.42-.21-.27-.2-.43-.42-.47-.68-.04-.25,0-.52,.14-.79l-.43-.32,.36-.49,.41,.3c.11-.13,.22-.24,.33-.32,.1-.09,.21-.16,.31-.21l.39,.55c-.06,.04-.14,.08-.23,.15-.09,.06-.17,.14-.26,.24l.88,.65c.11-.07,.24-.13,.37-.18,.13-.06,.26-.1,.39-.12,.13-.02,.27-.02,.4,0,.14,.03,.28,.09,.42,.2,.29,.21,.46,.45,.51,.72Z"/>
              </g>
              <path class="cls-5" d="M46.37,48.23l.64,.47,7.22-9.76s.06,.06,.1,.09c.42,.31,1,.22,1.31-.2,.03-.04,.05-.08,.07-.12l1.89,1.4,.47-.65-3.38-2.5-8.32,11.26Z"/>
              <g class="cls-15">
                <path class="cls-4" d="M51.86,45.51c.03,.11,.09,.19,.19,.27,.09,.07,.2,.09,.32,.07,.12-.03,.24-.08,.38-.15l-.77-.57c-.1,.15-.14,.28-.12,.38Z"/>
                <path class="cls-4" d="M52.86,46.54c-.12,.06-.25,.09-.38,.11-.13,.02-.27,.01-.41-.02-.14-.03-.28-.1-.42-.21-.27-.2-.43-.42-.47-.68-.04-.25,0-.52,.14-.79l-.43-.32,.36-.49,.41,.3c.11-.13,.22-.24,.33-.32,.1-.09,.21-.16,.31-.21l.39,.55c-.06,.04-.14,.08-.23,.15-.09,.06-.17,.14-.26,.24l.88,.65c.11-.07,.24-.13,.37-.18,.13-.06,.26-.1,.39-.12,.02,0,.04,0,.05,0l1.16-1.59s-.05-.05-.08-.07c-1.33-.98-3.21-.7-4.19,.63-.98,1.33-.7,3.21,.63,4.19,.04,.03,.09,.05,.13,.08l1.42-1.94s-.07,.04-.1,.05Z"/>
              </g>
            </g>
            <g>
              <rect class="cls-14" x="37.69" y="38.35" width="18.4" height="10.11" transform="translate(3.14 89.98) rotate(-89.59)"/>
              <polygon class="cls-8" points="47.02 49.2 47.02 34.21 41.9 34.17 41.9 49.2 47.02 49.2"/>
              <path class="cls-12" d="M42.7,51.55l8.26,.06,.12-16.35-8.27-.06-.12,16.35Zm6.51-15.37c0,.52,.41,.94,.93,.94,.05,0,.09,0,.14-.01l-.09,12.64s-.09-.01-.14-.01c-.52,0-.94,.41-.94,.93,0,.05,0,.09,.01,.14l-4.55-.03s.01-.09,.01-.14c0-.52-.41-.94-.93-.94-.05,0-.09,0-.14,.01l.09-12.64s.09,.01,.14,.01c.52,0,.94-.41,.94-.93,0-.05,0-.09-.01-.14l4.55,.03s-.01,.09-.01,.14Z"/>
              <g>
                <path class="cls-12" d="M47.53,42.95c-.08,.1-.15,.22-.22,.36h1.03c-.02-.16-.07-.29-.16-.38-.09-.08-.2-.13-.35-.13-.12,0-.23,.05-.31,.15Z"/>
                <path class="cls-2" d="M45.86,43.88c.12,0,.22-.04,.3-.13,.08-.09,.15-.21,.22-.34h-.95c0,.18,.05,.3,.13,.37,.08,.07,.18,.1,.31,.1Z"/>
                <path class="cls-12" d="M43.89,43.32c-.01,1.66,1.32,3.01,2.98,3.02,1.66,.01,3.01-1.32,3.02-2.98,0-1.66-1.32-3.01-2.98-3.02-1.66-.01-3.01,1.32-3.02,2.98Zm4.71-1c.2,.18,.33,.43,.38,.75h.55s0,.61,0,.61h-.51c0,.22-.03,.41-.08,.58-.04,.17-.09,.3-.14,.39l-.67-.23c.04-.07,.09-.17,.13-.3,.04-.12,.07-.28,.08-.45h-1.19c-.06,.11-.12,.23-.18,.35-.07,.12-.15,.22-.24,.32-.09,.09-.21,.17-.34,.22-.13,.05-.29,.08-.46,.08-.34,0-.6-.09-.78-.27-.18-.18-.3-.42-.35-.72h-.53s0-.61,0-.61h.51c.01-.17,.04-.32,.07-.45,.04-.13,.08-.25,.12-.36l.64,.22c-.03,.07-.06,.15-.09,.25-.03,.1-.06,.22-.07,.35h1.1c.05-.11,.12-.23,.19-.36,.07-.12,.15-.23,.25-.33,.09-.09,.21-.17,.33-.23,.13-.06,.28-.09,.46-.09,.36,0,.64,.1,.84,.28Z"/>
              </g>
              <path class="cls-5" d="M42.71,49.2h.8l.09-12.14s.09,.01,.14,.01c.52,0,.94-.41,.94-.93,0-.05,0-.09-.01-.14l2.35,.02v-.8l-4.2-.03-.1,14Z"/>
              <g class="cls-15">
                <path class="cls-4" d="M45.55,43.78c.08,.07,.18,.1,.31,.1,.12,0,.22-.04,.3-.13,.08-.09,.15-.21,.22-.34h-.95c0,.18,.05,.3,.13,.37Z"/>
                <path class="cls-4" d="M46.96,44.02c-.07,.12-.15,.22-.24,.32-.09,.09-.21,.17-.34,.22-.13,.05-.29,.08-.46,.08-.34,0-.6-.09-.78-.27-.18-.18-.3-.42-.35-.72h-.53s0-.61,0-.61h.51c.01-.17,.04-.32,.07-.45,.04-.13,.08-.25,.12-.36l.64,.22c-.03,.07-.06,.15-.09,.25-.03,.1-.06,.22-.07,.35h1.1c.05-.11,.12-.23,.19-.36,.07-.12,.15-.23,.25-.33,.01-.01,.03-.02,.04-.03v-1.97s-.07-.01-.11-.01c-1.66-.01-3.01,1.32-3.02,2.98-.01,1.66,1.32,3.01,2.98,3.02,.05,0,.1-.01,.15-.01v-2.41s-.03,.07-.05,.1Z"/>
              </g>
            </g>
            <g>
              <rect class="cls-14" x="34.24" y="37.06" width="10.11" height="18.4" transform="translate(-15.16 19.45) rotate(-23.44)"/>
              <polygon class="cls-8" points="41.75 51.51 35.69 37.79 31 39.83 37.07 53.57 41.75 51.51"/>
              <path class="cls-12" d="M38.75,55.41l7.58-3.29-6.51-15-7.58,3.29,6.5,15Zm-.26-16.69c.2,.47,.75,.69,1.23,.49,.04-.02,.08-.04,.12-.07l5.03,11.6s-.09,.02-.13,.04c-.47,.2-.69,.76-.48,1.23,.02,.04,.04,.08,.07,.12l-4.18,1.81s-.02-.09-.04-.13c-.21-.47-.76-.69-1.23-.49-.04,.02-.08,.04-.12,.07l-5.03-11.6s.09-.02,.13-.04c.47-.21,.69-.76,.49-1.23-.02-.04-.04-.08-.07-.12l4.18-1.81s.02,.09,.04,.13Z"/>
              <g>
                <path class="cls-12" d="M39.69,45.58c-.03,.12-.05,.26-.06,.42l.95-.41c-.08-.15-.19-.25-.3-.29-.11-.04-.24-.03-.37,.02-.11,.05-.19,.13-.22,.26Z"/>
                <path class="cls-2" d="M38.54,47.11c.11-.05,.18-.13,.22-.24,.04-.12,.06-.25,.06-.4l-.88,.38c.08,.17,.17,.26,.27,.29,.11,.03,.21,.02,.32-.03Z"/>
                <path class="cls-12" d="M36.52,47.4c.66,1.52,2.42,2.22,3.94,1.56,1.52-.66,2.22-2.43,1.56-3.94-.66-1.52-2.42-2.22-3.95-1.56-1.52,.66-2.22,2.42-1.56,3.94Zm3.9-2.82c.26,.09,.48,.26,.66,.53l.5-.22,.24,.56-.47,.2c.08,.21,.14,.39,.17,.57,.03,.17,.04,.31,.03,.41l-.71,.06c.01-.08,.01-.19,0-.32-.01-.13-.05-.28-.11-.45l-1.09,.47c0,.13,0,.27-.02,.4-.01,.13-.04,.26-.09,.39-.05,.12-.12,.24-.22,.34-.1,.1-.23,.19-.39,.26-.31,.13-.58,.16-.82,.07-.24-.09-.45-.26-.62-.52l-.49,.21-.24-.56,.47-.2c-.06-.16-.1-.31-.11-.44-.02-.13-.03-.26-.03-.38l.68-.06c0,.07,0,.16,.01,.27,.01,.1,.04,.22,.07,.34l1.01-.44c0-.13,0-.27,.02-.41,.01-.14,.04-.27,.09-.4,.05-.12,.12-.24,.21-.35s.22-.19,.38-.26c.33-.14,.62-.17,.88-.08Z"/>
              </g>
              <path class="cls-5" d="M37.82,53.25l.73-.32-4.83-11.14s.09-.02,.13-.04c.47-.21,.69-.76,.49-1.23-.02-.04-.04-.08-.07-.12l2.16-.93-.32-.73-3.85,1.67,5.57,12.85Z"/>
              <g class="cls-15">
                <path class="cls-4" d="M38.22,47.14c.11,.03,.21,.02,.32-.03,.11-.05,.18-.13,.22-.24,.04-.12,.06-.25,.06-.4l-.88,.38c.08,.17,.17,.26,.27,.29Z"/>
                <path class="cls-4" d="M39.61,46.79c-.01,.13-.04,.26-.09,.39-.05,.12-.12,.24-.22,.34-.1,.1-.23,.19-.39,.26-.31,.13-.58,.16-.82,.07-.24-.09-.45-.26-.62-.52l-.49,.21-.24-.56,.47-.2c-.06-.16-.1-.31-.11-.44-.02-.13-.03-.26-.03-.38l.68-.06c0,.07,0,.16,.01,.27,.01,.1,.04,.22,.07,.34l1.01-.44c0-.13,0-.27,.02-.41,.01-.14,.04-.27,.09-.4,0-.02,.02-.03,.03-.05l-.8-1.8s-.07,.02-.1,.03c-1.52,.66-2.22,2.42-1.56,3.94,.66,1.52,2.42,2.22,3.94,1.56,.05-.02,.09-.05,.13-.07l-.97-2.2s0,.08,0,.11Z"/>
              </g>
            </g>
            <path class="cls-1" d="M34,48.03h25.7c1.22,0,2.2,.99,2.2,2.2v17.99c0,1.22-.99,2.2-2.2,2.2h-25.7c-1.22,0-2.2-.99-2.2-2.2v-17.99c0-1.22,.99-2.2,2.2-2.2Z"/>
            <g>
              <rect class="cls-9" x="31.79" y="62.46" width="30.11" height="3.12"/>
              <rect class="cls-9" x="31.79" y="53.19" width="30.11" height="3.12"/>
            </g>
            <path class="cls-16" d="M46.84,48.03h-12.85c-1.22,0-2.2,.99-2.2,2.2v17.99c0,1.22,.99,2.2,2.2,2.2h12.85v-22.39Z"/>
            <rect class="cls-3" x="31.79" y="62.46" width="15.05" height="3.12"/>
            <rect class="cls-3" x="31.79" y="53.19" width="15.05" height="3.12"/>
            <rect class="cls-9" x="46.84" y="62.46" width="15.05" height="3.12"/>
            <rect class="cls-9" x="46.84" y="53.19" width="15.05" height="3.12"/>
            <path class="cls-17" d="M37.14,60.59c0,1.22-.76,2.2-1.69,2.2h-4.93c-.94,0-1.7-.98-1.7-2.2v-2.15c0-1.22,.76-2.21,1.7-2.21h4.93c.94,0,1.69,.98,1.69,2.21v2.15Z"/>
            <path class="cls-3" d="M35.43,58.53c.46,.86,.14,1.94-.72,2.41-.87,.47-1.94,.14-2.41-.72-.46-.87-.14-1.94,.72-2.41,.86-.46,1.94-.14,2.41,.72Z"/>
          </g>
          <g>
            <polygon class="cls-10" points="19.63 11.39 1.01 27.08 0 32.78 5.59 31.94 7.29 30.51 7.82 27.4 10.97 27.41 12.28 26.3 10.85 24.6 12.09 23.56 13.52 25.26 14.58 24.36 13.15 22.66 16.07 23.11 18.41 21.14 18.07 18.15 20.95 18.99 23.82 16.57 19.63 11.39"/>
            <polygon class="cls-5" points="20.56 12.48 2.49 27.71 2.07 30.06 21.54 13.65 20.56 12.48"/>
            <polygon class="cls-17" points="21.73 13.98 19.63 11.39 1.01 27.08 .1 32.21 21.73 13.98"/>
            <polygon class="cls-5" points="20.71 12.66 2.64 27.89 2.22 30.24 21.69 13.83 20.71 12.66"/>
            <path class="cls-10" d="M34.43,3.27c-3.27-3.88-9.07-4.38-12.96-1.1-3.88,3.27-4.38,9.07-1.11,12.96,3.27,3.89,9.08,4.38,12.96,1.11,3.88-3.27,4.38-9.08,1.1-12.96Zm-6.67,5.62c-1.05-1.24-.89-3.1,.35-4.14,1.24-1.05,3.1-.89,4.14,.35,1.05,1.24,.89,3.1-.35,4.14-1.24,1.05-3.1,.89-4.14-.35Z"/>
            <path class="cls-17" d="M28.12,4.75c1.24-1.05,3.1-.89,4.14,.35l2.17-1.83c-3.27-3.88-9.07-4.38-12.96-1.1-3.88,3.27-4.38,9.07-1.11,12.96l7.39-6.23c-1.05-1.24-.89-3.1,.35-4.14Z"/>
          </g>
          <path class="cls-9" d="M38.73,21.53l.65-.83-3.04-2.37v-2.5h.25v-.8h-2.81v.8h.25v.7l-2.94-2.3-8.29,6.48,.65,.83,1.25-.97v10.44h-.85v1.21h14.49v-1.21h-.83v-10.42l1.23,.96Zm-7.65-2.55c-.75,0-1.36-.61-1.36-1.36s.61-1.35,1.36-1.35,1.36,.61,1.36,1.35-.61,1.36-1.36,1.36Z"/>
          <path class="cls-3" d="M23.44,21.53l1.25-.97v10.44h-.85v1.21h7.25v-13.22h0c-.75,0-1.36-.61-1.36-1.36s.61-1.35,1.36-1.35h0v-2.04l-8.29,6.48,.65,.83Z"/>
          <path class="cls-11" d="M32.25,17c-.27-.2-.53-.42-.76-.66-.45-.46-.84-.97-1.15-1.53-.1-.18-.2-.35-.29-.53-.64-1.43-.76-2.96-.45-4.38,.38-1.75,1.41-3.33,2.96-4.36-.09-.15-.18-.3-.3-.44-.09-.11-.2-.21-.31-.3-1.69,1.16-2.82,2.9-3.26,4.82-.37,1.64-.25,3.4,.49,5.04,.11,.25,.26,.49,.39,.73,.22,.39,.47,.76,.76,1.1,.3,.36,.64,.69,.99,.99,.26,.22,.52,.43,.81,.62l.3-.46s0,0,0-.01c0-.21-.05-.41-.14-.58-.02-.01-.03-.03-.05-.04Z"/>
        </g>
      </g>
    </g>
  </g>
</svg>