<?xml version="1.0" encoding="UTF-8"?>
<svg id="Layer_2" data-name="Layer 2" xmlns="http://www.w3.org/2000/svg" xmlns:xlink="http://www.w3.org/1999/xlink" viewBox="0 0 192.94 143.37">
  <defs>
    <style>
      .cls-1 {
        fill: #f79878;
      }

      .cls-2 {
        fill: url(#linear-gradient-2);
      }

      .cls-3 {
        fill: #5d9fc9;
      }

      .cls-4 {
        fill: #fff;
      }

      .cls-5 {
        fill: url(#linear-gradient-6);
      }

      .cls-6 {
        fill: #b3d2e3;
      }

      .cls-7 {
        fill: #c5e8fe;
      }

      .cls-8 {
        fill: #0180b3;
      }

      .cls-9 {
        fill: #018ec7;
      }

      .cls-10 {
        fill: gray;
      }

      .cls-11 {
        fill: #6cb8e9;
      }

      .cls-12 {
        fill: url(#linear-gradient-5);
      }

      .cls-13 {
        fill: #66b8d9;
      }

      .cls-14 {
        fill: #472a29;
      }

      .cls-15 {
        fill: url(#linear-gradient-3);
      }

      .cls-16 {
        fill: #798e99;
      }

      .cls-17 {
        fill: url(#linear-gradient);
      }

      .cls-18 {
        fill: #dfe094;
      }

      .cls-19 {
        fill: url(#linear-gradient-4);
      }

      .cls-20 {
        fill: #bedbeb;
      }

      .cls-21 {
        fill: #92a8b5;
      }

      .cls-22 {
        fill: #019bd9;
      }
    </style>
    <linearGradient id="linear-gradient" x1="96.38" y1="131.25" x2="95.34" y2="6.25" gradientUnits="userSpaceOnUse">
      <stop offset="0" stop-color="#fff"/>
      <stop offset="1" stop-color="#bce0f4"/>
    </linearGradient>
    <linearGradient id="linear-gradient-2" x1="38.79" y1="6.16" x2="38.79" y2="50.06" xlink:href="#linear-gradient"/>
    <linearGradient id="linear-gradient-3" x1="75.41" y1="21.57" x2="101.1" y2="21.57" xlink:href="#linear-gradient"/>
    <linearGradient id="linear-gradient-4" x1="139.79" y1="67.48" x2="142.21" y2="67.48" xlink:href="#linear-gradient"/>
    <linearGradient id="linear-gradient-5" x1="97.62" y1="98.59" x2="-.69" y2="100.34" xlink:href="#linear-gradient"/>
    <linearGradient id="linear-gradient-6" x1="95.19" y1="97.51" x2="8.82" y2="98.47" xlink:href="#linear-gradient"/>
  </defs>
  <g id="OBJECTS">
    <g>
      <path class="cls-17" d="M160.9,70.36c.16-1.24,.24-2.5,.24-3.77,0-11.13-6.07-20.84-15.08-26.01,1.25-3.3,1.94-6.87,1.94-10.6,0-16.55-13.42-29.97-29.97-29.97-6.82,0-13.1,2.28-18.14,6.11-4.5-2.69-9.76-4.25-15.38-4.25-16.55,0-29.97,13.42-29.97,29.97,0,.26,.01,.51,.02,.76-.23,0-.46-.02-.69-.02-16.55,0-29.97,13.42-29.97,29.97,0,2.85,.41,5.6,1.15,8.22-8.79,5.22-14.69,14.81-14.69,25.78,0,14.55,10.38,26.68,24.13,29.4l-.12,1.43h108.05c2.98,.99,6.16,1.54,9.47,1.54,16.55,0,29.97-13.42,29.97-29.97,0-13.41-8.81-24.76-20.96-28.59Z"/>
      <g>
        <path class="cls-4" d="M8.04,16.64H104.56c1.17,0,2.13,.95,2.13,2.13v31.14H5.91V18.77c0-1.17,.95-2.13,2.13-2.13Z"/>
        <polygon class="cls-6" points="101.9 56.19 9.8 56.19 5.91 49.9 106.69 49.9 101.9 56.19"/>
        <path class="cls-2" d="M14.09,19.64l57.59-2.8-.1-.2H9.55c-2.01,0-3.64,1.63-3.64,3.64v29.62h4.44V23.93c0-2.59,3.74-4.29,3.74-4.29Z"/>
        <rect class="cls-16" x="23" y="50.13" width="69.2" height="3.73"/>
        <path class="cls-20" d="M92.2,50.13h0c0-2.19-1.77-3.96-3.96-3.96H26.96c-2.19,0-3.96,1.77-3.96,3.96H92.2Z"/>
        <rect class="cls-15" x="75.41" y="20.2" width="25.69" height="2.74"/>
        <polygon class="cls-21" points="95.1 49.9 104.25 51.21 101.9 56.19 106.69 49.9 95.1 49.9"/>
      </g>
      <path class="cls-7" d="M97.17,128.75c0,3.35,21.44,6.07,47.89,6.07s47.89-2.72,47.89-6.07-21.44-6.07-47.89-6.07-47.89,2.72-47.89,6.07Z"/>
      <g>
        <g>
          <path class="cls-11" d="M112.31,9.71l.15,4.04-1.04,2.14-11.9,14.51h.01s-1.7,1.49-1.7,1.49c-2.61,.17-4.54,.81-5.05,1.12-.51,.31-2.1,2.56-2.1,2.56,0,0-.62,2.45,.73,4.16l2.42-3.76s1.7-.55,3.09,.27c1.39,.82,1.6,2.69,1.6,2.69l-2.32,3.61c.37,.11,.59,.16,.59,.16l2.41-.74c.23-.07,.43-.22,.57-.41l1.48-2.03c.13-.18,.2-.4,.19-.62l-.15-4.04,1.13-2.06,11.9-14.51,1.59-1.57c2.61-.17,4.54-.81,5.05-1.12,.51-.31,2.1-2.56,2.1-2.56,0,0,.62-2.45-.73-4.16l-2.42,3.76s-1.7,.55-3.09-.27c-1.39-.82-1.6-2.69-1.6-2.69l2.32-3.61c-.37-.11-.59-.16-.59-.16l-2.41,.74c-.23,.07-.43,.22-.57,.41l-1.48,2.03c-.13,.18-.2,.4-.19,.62Z"/>
          <polygon class="cls-3" points="101.31 34.86 101.12 32.95 114.75 16.35 115.93 16.72 101.31 34.86"/>
        </g>
        <path class="cls-18" d="M152.65,28.06s8.79,6.6,9.18,11.13c.4,4.53-3.48,7.2-3.48,7.2l-5.71-18.33Z"/>
        <path class="cls-22" d="M156.74,57.95l2.19,14.02c1.57,10.07,1.32,26.52-.77,36.49-.17,.8-.21,1.22-.2,1.69l25.27,5.01-2.27,6.4-28.8,1.44c-4.04,0-7.38-3.13-7.65-7.15l-9.49-41.3s14.44-17.87,21.7-16.59Z"/>
        <path class="cls-14" d="M114.86,121.04s-7.06,4.82-9.45,5.07c-.42,.04-.79,.42-.86,.92-.06,.5,.13,1.08,1.17,1.41,2.07,.66,14.15,.06,14.15,.06,0,0,.18-2.07,.39-4.25,.1-1.06-.19-2.48-.19-2.48l-5.2-.72Z"/>
        <path class="cls-22" d="M156.33,63.33c-.2-.17-1.69-6.53-1.95-6.55l-22.05-1.74c-.27-.02-.51,.17-.55,.44-.24,1.65-.2,3.36-1.13,10.64,0,0-17.68-.38-18.24,9.16-.89,15.3,1.48,42.41,1.45,45.5,0,.27,.2,.49,.46,.52l7.93-1.22c.27,.03-1.67,1.52-1.63,1.25,0,0,1.71-18.35,7.78-28.84,1.08-1.86,5.91-.34,10.78-2.06,5.33-1.87,10.7-9.01,11.27-12.49,1.02-6.22,8.12-12.71,5.87-14.62Z"/>
        <path class="cls-18" d="M148.51,27.06c-.94,.08-1.28-.15-2.2,.01-2.02,.37-7.92,.64-8.34,1.39-.6,1.08-.81,10.66-2.6,13.17-1.8,2.52-3.57,13.85-4.7,21.96-.3,2.18,17.11,5.24,26.73,1.2,0,0,5.47-39-8.88-37.73Z"/>
        <g>
          <path class="cls-1" d="M142.45,27.52c-.1-1.4,.24-8.8,.24-8.8,0,0,1.68,.49,2.75,1.23,0-.23,.07-.52,.21-.92,0,0,.34-.78,.72-.67,.38,.11,.81,.66,.14,1.4l-.38,.83h0c.08,.11,.13,.22,.16,.34,0,0-.33,5.63,.02,6.15l-3.85,.45Z"/>
          <path class="cls-1" d="M141.96,17.91s0,1.47-.3,1.96c-.31,.48-.34,3.5,.11,4.16,.23,.34,1.49,.45,2.76-.53s1.57-3.41,1.57-3.41c0,0,.63-2.55-4.14-2.17Z"/>
          <path class="cls-14" d="M143.03,18.91c0-.14,.02-.29,.03-.43,.46,.09,.93,.18,1.36,.35,.43,.17,.82,.44,1.03,.81,.24-.4,.44-.81,.61-1.24,.05-.12,.09-.25,.07-.38-.03-.19-.19-.34-.34-.48-.57-.47-1.3-.84-2.08-.89-.63-.05-1.65,.17-1.96,.72-.28,.49,.87,1.28,1.29,1.55Z"/>
        </g>
        <path class="cls-22" d="M139.59,27.9l-4.23,13.74,10.95-3.38-3.85-10.73s-1.24-.14-2.86,.38Z"/>
        <path class="cls-22" d="M143.36,31.45l-8,6.18-1.7,8.74c-1.17,4.71-2.24,11.71-3,17.22-.3,2.18,17.11,5.24,26.73,1.2,0,0,1.86-13.29,.55-24.1-1.91-5.23-8.54-13.35-8.77-13.63-.22,0-.43-.02-.67,0-.35,.03-.61,.01-.86,0l-1.35,.02,2.37,3.73-5.31,.64Z"/>
        <polygon class="cls-18" points="142.45 27.52 142.45 25.88 146.14 25.08 146.3 27.07 142.45 27.52"/>
        <path class="cls-14" d="M141.13,14.95c1.39-1.53,3.22,.06,3.7,.15,.87,.18,4.59,2.09,3.25,3.77-.4,.5-.61,1.14-1.08,1.58-.14,.13-.29,.26-.35,.44-.07,.22,0,.49-.13,.68-.2,.28-.68,.12-.84-.19s-.12-.67-.17-1.02c-.08-.59-.44-1.14-.95-1.46-.5-.31-1.11-.39-1.7-.47-.68-.08-.93-.04-1.29-.64-.25-.42-1.37-1.84-.44-2.86Z"/>
        <rect class="cls-8" x="130.65" y="66.12" width="26.12" height="1.73"/>
        <g>
          <path class="cls-4" d="M137.87,72.93h0c-.74-.3-1.09-1.15-.79-1.89l2.86-6.93,1.34,.55,1.34,.55-2.86,6.93c-.3,.74-1.15,1.09-1.89,.79Z"/>
          <polygon class="cls-4" points="141.71 64.84 140.84 64.48 144.37 55.93 144.7 55.59 145.02 54.35 145.89 54.71 145.29 55.82 145.23 56.31 141.71 64.84"/>
          <rect class="cls-14" x="139.37" y="64.62" width="3.42" height="1.06" transform="translate(35.49 -48.86) rotate(22.41)"/>
        </g>
        <path class="cls-8" d="M133.52,69.1h8.5v5.29c0,2.35-1.9,4.25-4.25,4.25h0c-2.35,0-4.25-1.9-4.25-4.25v-5.29Z"/>
        <path class="cls-8" d="M150.06,69.58h8.5v5.29c0,2.35-1.9,4.25-4.25,4.25h0c-2.35,0-4.25-1.9-4.25-4.25v-5.29Z"/>
        <polygon class="cls-13" points="122.26 122.19 112.41 121.02 112.41 116.64 122.26 117.82 122.26 122.19"/>
        <polygon class="cls-13" points="184.32 112.61 180.33 123.49 176.15 122.2 179.55 111.14 184.32 112.61"/>
        <path class="cls-14" d="M178.71,127.96c.17-.48,.62-.76,1.04-.71,.13,.02,.27,.02,.43,.01,2.07-.11,3.33-2.36,2.52-4.26l-1.73-1.44,2.29-6.43s1.21-.03,2.22,.3c2.09,.68,4.06,1.32,4.06,1.32,0,0-.32,4.02-.8,7.82-.17,1.32-.82,2.53-1.84,3.4l-3.07,2.62c-2.01-.3-3.7-.64-4.31-1-.94-.55-1-1.16-.83-1.63Z"/>
        <path class="cls-1" d="M106.26,26.35s-3.42-2.14-2.61-3.09c.81-.95,1.79-2.13,2.69-1.62,.9,.51,1.9,3.06,1.9,3.06,0,0-1.02,1.54-1.98,1.65Z"/>
        <path class="cls-18" d="M139.59,27.9s-15.13,6.95-16.01,6.89c-.87-.06-15.42-10.23-15.42-10.23l-2.47,2.23s10.08,13.44,17.1,16.29c4.74,1.92,16.65-2.39,16.65-2.39,0,0,3.57-10.02,.14-12.79Z"/>
        <path class="cls-9" d="M140.36,97.7l-1.63-7.08,.45-.19c7.53-2.22,13.87-7.4,13.87-7.4-2.74,7.62-8.94,12.37-12.7,14.66Z"/>
      </g>
      <polygon class="cls-19" points="141.39 65.86 139.79 69.1 141.01 69.1 142.21 66.2 141.39 65.86"/>
      <rect class="cls-4" x="1.88" y="69.58" width="93.22" height="59.77"/>
      <path class="cls-12" d="M95.53,129.78H1.45v-60.62H95.53v60.62Zm-93.22-.86H94.67v-58.91H2.31v58.91Z"/>
      <g>
        <circle class="cls-8" cx="67.62" cy="99.46" r="20.26"/>
        <path class="cls-4" d="M67.62,115.7c-8.95,0-16.23-7.28-16.23-16.23s7.28-16.23,16.23-16.23,16.23,7.28,16.23,16.23-7.28,16.23-16.23,16.23Zm0-31.73c-8.55,0-15.5,6.95-15.5,15.5s6.95,15.5,15.5,15.5,15.5-6.95,15.5-15.5-6.95-15.5-15.5-15.5Z"/>
        <path class="cls-4" d="M67.62,111.82c-6.81,0-12.36-5.54-12.36-12.36s5.54-12.36,12.36-12.36,12.36,5.54,12.36,12.36-5.54,12.36-12.36,12.36Zm0-24.15c-6.51,0-11.8,5.29-11.8,11.8s5.29,11.8,11.8,11.8,11.8-5.29,11.8-11.8-5.29-11.8-11.8-11.8Z"/>
        <path class="cls-4" d="M67.62,116.82c-9.57,0-17.36-7.79-17.36-17.36s7.79-17.36,17.36-17.36,17.36,7.79,17.36,17.36-7.79,17.36-17.36,17.36Zm0-33.94c-9.14,0-16.58,7.44-16.58,16.58s7.44,16.58,16.58,16.58,16.58-7.44,16.58-16.58-7.44-16.58-16.58-16.58Z"/>
        <path class="cls-4" d="M80.36,115.21l-11.2-14.91,11.96-15.92c-.73-.65-1.49-1.26-2.31-1.8l-11.48,15.28-11.28-15.01c-.8,.56-1.56,1.18-2.27,1.85l11.72,15.6-10.97,14.6c.74,.63,1.54,1.2,2.37,1.72l10.43-13.89,10.62,14.14c.84-.5,1.65-1.05,2.41-1.66Z"/>
        <circle class="cls-4" cx="67.62" cy="99.46" r="5.78"/>
      </g>
      <polygon class="cls-5" points="5.91 71.85 5.91 124.89 28.72 124.89 28.72 76.39 92.2 73.04 5.91 71.85"/>
      <rect class="cls-22" x="11.87" y="118.03" width="31.97" height="3.34"/>
      <rect class="cls-22" x="11.87" y="112.62" width="31.97" height="3.34"/>
      <rect class="cls-22" x="11.87" y="107.21" width="31.97" height="3.34"/>
      <path class="cls-10" d="M99.27,102.29h-3.16v-5.13h3.16c1.5,0,2.71-1.22,2.71-2.71v-25.75c0-4.67,3.8-8.48,8.48-8.48h2.25c2.76,0,5.01-2.25,5.01-5.01v-5.45c0-.56-.46-1.02-1.02-1.02h-10v-5.13h10c3.39,0,6.15,2.76,6.15,6.15v5.45c0,5.59-4.55,10.14-10.14,10.14h-2.25c-1.85,0-3.35,1.5-3.35,3.35v25.75c0,4.33-3.52,7.84-7.84,7.84Z"/>
    </g>
    <polygon class="cls-8" points="5.2 143.37 0 143.37 0 87.9 9.97 87.9 9.97 39.48 92.31 39.48 92.31 40.34 10.82 40.34 10.82 88.75 .85 88.75 .85 142.52 5.2 142.52 5.2 143.37"/>
    <polygon class="cls-8" points="183.47 131.2 173.18 131.2 173.18 130.34 182.62 130.34 182.62 40.34 140.32 40.34 140.32 39.48 183.47 39.48 183.47 131.2"/>
  </g>
</svg>