<?xml version="1.0" encoding="UTF-8"?>
<svg id="Layer_2" data-name="Layer 2" xmlns="http://www.w3.org/2000/svg" viewBox="0 0 199.24 146.81">
  <defs>
    <style>
      .cls-1 {
        fill: #fff;
      }

      .cls-2 {
        fill: #dcf0f9;
      }

      .cls-3 {
        fill: #c4142d;
      }

      .cls-4 {
        fill: #f1a393;
      }

      .cls-5 {
        fill: #939190;
      }

      .cls-6 {
        fill: #95b3c1;
      }

      .cls-7 {
        fill: #f75252;
      }

      .cls-8 {
        fill: #f7a726;
      }

      .cls-9 {
        fill: #47536d;
      }

      .cls-10 {
        fill: #fdbfb1;
      }

      .cls-11 {
        fill: #2e394c;
      }

      .cls-12 {
        fill: #b8d1e0;
      }

      .cls-13 {
        fill: #d63837;
      }

      .cls-14 {
        fill: #b8e0f4;
      }

      .cls-15 {
        fill: #e7f3f7;
      }

      .cls-16 {
        fill: #ea2437;
      }

      .cls-17 {
        fill: #af0e2d;
      }

      .cls-18 {
        fill: #ffc327;
      }

      .cls-19 {
        fill: #136399;
      }

      .cls-20 {
        fill: #07496d;
      }

      .cls-21 {
        fill: #231f20;
      }

      .cls-22 {
        fill: #4c3d44;
      }

      .cls-23 {
        fill: #ea7878;
      }

      .cls-24 {
        fill: #c5e8fc;
      }
    </style>
  </defs>
  <g id="OBJECTS">
    <g>
      <g>
        <path class="cls-12" d="M163.67,40.8c-35.53-1.25-32.71-16.01-52.91-31.46-20.74-15.86-38.61-6.74-38.61-6.74,0,0-32.33,8.73-12.24,38.84,2.58,3.87,2.54,6.53,.8,8.64l-19.91-27.9c2.74-4.79,2.65-10.93-.77-15.71C36.83,1.97,31.52-.16,26.39,.47l7.03,9.85-3,7.88-8.3,.19v-.04s-7.01-9.84-7.01-9.84c-2.28,4.65-2.01,10.38,1.21,14.9,3.41,4.79,9.19,6.87,14.61,5.84l19.02,26.66c-.25,.09-.5,.19-.75,.28-.47-.08-.94-.17-1.42-.25-.1,.31-.2,.6-.3,.9-1.59,.6-3.24,1.23-4.91,1.92-.43-.45-.85-.91-1.27-1.35-1.37,.95-2.73,1.89-4.09,2.84,.29-1.58,.58-3.16,.87-4.74-1.44-.48-2.84-.94-4.24-1.42-.14-.05-.3-.19-.33-.32-.17-.69-.32-1.38-.45-2.08-.02-.12,.03-.3,.11-.38,.86-.81,1.72-1.6,2.59-2.39,.25-.23,.51-.46,.77-.69-1.43-2.08-2.82-4.09-4.22-6.11-1.38,.68-2.71,1.34-4.04,2.01-.2,.1-.33,.08-.5-.03-.47-.33-.92-.68-1.42-.94-.42-.22-.53-.48-.5-.93,.09-1.38,.12-2.77,.18-4.16-2.35-.43-4.69-.86-7.02-1.3-.21-.04-.28,.03-.34,.22-.45,1.37-.92,2.74-1.39,4.1-.03,.09-.13,.19-.22,.21-.69,.16-1.39,.29-2.08,.46-.21,.05-.33,.02-.48-.14-.9-.99-1.82-1.96-2.71-2.96-.25-.28-.43-.32-.74-.09-1.27,.9-2.56,1.78-3.84,2.66-.61,.42-1.22,.84-1.84,1.27,.05,.11,.09,.19,.13,.28,.61,1.23,1.21,2.46,1.83,3.68,.13,.26,.11,.45-.06,.68-.37,.51-.7,1.04-1.03,1.57-.11,.18-.23,.25-.44,.24-.74-.04-1.49-.07-2.23-.1-.75-.03-1.5-.05-2.26-.08-.02,.08-.04,.12-.04,.17-.42,2.28-.83,4.56-1.26,6.83-.05,.25,.05,.31,.26,.38,1.35,.44,2.7,.89,4.04,1.35,.1,.04,.22,.17,.24,.28,.16,.69,.31,1.38,.44,2.08,.02,.13-.03,.32-.12,.41-.31,.32-.65,.6-.98,.9-.78,.72-1.55,1.44-2.35,2.19,1.01,1.46,2,2.9,3.02,4.36,.52-.46,.99-.88,1.47-1.3,1.72-1.52,3.44-3.03,5.16-4.54,.21-.18,.23-.3,.07-.54-2.2-3.25-2.45-6.69-.6-10.13,1.69-3.15,4.47-4.83,8.05-4.95,3.63-.12,6.47,1.46,8.44,4.49,1.37,2.11,1.72,4.46,1.24,6.94-.07,.35-.15,.69-.23,1.03,1.52,.1,3.01,.2,4.5,.3,.1,1.23,.21,2.42,.31,3.64,.47,.02,.95,.04,1.42,.06-1.08,.62-2.14,1.28-3.18,1.99-.02-.28-.04-.56-.07-.84-.08-1-.17-1.99-.26-2.99-3.16-.18-6.3-.35-9.47-.53,0,.03-.03,.1-.04,.17-.37,1.82-.75,3.65-1.12,5.48-.05,.23-.13,.34-.37,.42-.86,.27-1.72,.57-2.57,.88-.21,.08-.34,.04-.49-.09-1.42-1.22-2.85-2.43-4.27-3.65-.15-.13-.24-.11-.38,.01-2.14,1.9-4.29,3.8-6.43,5.7-.5,.44-.49,.44-.13,.99,.97,1.45,1.93,2.91,2.88,4.37,.07,.1,.09,.29,.04,.4-.4,.86-.82,1.72-1.25,2.57-.05,.11-.21,.22-.32,.23-1.19,.11-2.39,.21-3.58,.31-.76,.06-1.53,.12-2.3,.18-.18,3.18-.36,6.33-.54,9.49,.03,0,.09,.02,.14,.04,1.85,.38,3.69,.76,5.54,1.13,.23,.04,.32,.14,.39,.36,.28,.87,.6,1.73,.88,2.6,.04,.12,0,.33-.08,.42-1.16,1.39-2.34,2.78-3.52,4.15-.22,.25-.27,.41-.01,.68,1.68,1.86,3.33,3.74,5,5.61,.34,.38,.68,.76,1.03,1.16,.16-.1,.31-.19,.46-.28,1.44-.95,2.87-1.9,4.31-2.85-1.02,23.57,8.98,51.09,46.27,44.26,35.77-6.56,48.15-4.99,93.63-6.14,45.48-1.15,44.65-96.84,9.12-98.09ZM15.23,92.25c-4.33-5.25-3.48-12.77,1.36-16.98,1.85-1.67,4.09-2.64,6.4-2.95-1.56,2.05-2.92,4.35-4,6.97-1.52,3.67-2.76,8.23-3.53,13.22-.08-.09-.16-.18-.24-.27Z"/>
        <g>
          <path class="cls-11" d="M180.03,141.24c0,3.08-38.01,5.57-84.89,5.57s-84.89-2.49-84.89-5.57,38.01-5.57,84.89-5.57,84.89,2.49,84.89,5.57Z"/>
          <g>
            <g>
              <rect class="cls-1" x="124.52" y="41.47" width="29.65" height="93.66"/>
              <rect class="cls-2" x="100.69" y="41.47" width="23.83" height="93.66"/>
              <path class="cls-11" d="M146.33,41.47h7.91v2.28h-5.7c-1.22,0-2.21-.99-2.21-2.21v-.07h0Z"/>
              <rect class="cls-11" x="100.69" y="39.11" width="53.48" height="2.36"/>
              <rect class="cls-15" x="124.52" y="41.47" width="2.65" height="93.66"/>
              <rect class="cls-11" x="127.17" y="79.05" width="27.01" height="1.12"/>
            </g>
            <path class="cls-11" d="M151.21,53.73h.06c1.08,0,1.96,.88,1.96,1.96v8.55c0,1.08-.88,1.96-1.96,1.96h-.06v-12.47h0Z"/>
            <path class="cls-11" d="M151.21,85.33h.06c1.08,0,1.96,.88,1.96,1.96v8.55c0,1.08-.88,1.96-1.96,1.96h-.06v-12.47h0Z"/>
            <rect class="cls-21" x="100.69" y="135.13" width="2.09" height="4.43"/>
            <rect class="cls-21" x="114.37" y="135.13" width="2.09" height="4.43"/>
            <rect class="cls-21" x="124.8" y="135.13" width="2.09" height="4.43"/>
            <rect class="cls-21" x="151.17" y="135.13" width="2.09" height="4.43"/>
          </g>
          <g>
            <rect class="cls-1" x="75.94" y="75.37" width="34.3" height="63.83"/>
            <rect class="cls-2" x="48.38" y="75.37" width="27.56" height="63.83"/>
            <path class="cls-11" d="M48.38,75.37v-9.07l4.8,6h20.88s1.88,1.1,1.88,3.06h-27.56Z"/>
            <path class="cls-9" d="M75.94,75.37l-23-3.35-4.57-5.72h37.41l2.21,5.84h19.11s3.14,.16,3.14,3.23"/>
            <g>
              <path class="cls-11" d="M92.5,107.29c0-7.14,3.57-13.03,8.19-13.93-.4-.08-.82-.12-1.24-.12-5.2,0-9.42,6.29-9.42,14.06s4.22,14.06,9.42,14.06c.42,0,.83-.05,1.24-.12-4.62-.9-8.19-6.79-8.19-13.93Z"/>
              <path class="cls-9" d="M101.93,93.23c-.42,0-.83,.05-1.24,.12,4.62,.9,8.19,6.79,8.19,13.93s-3.57,13.03-8.19,13.93c.4,.08,.82,.12,1.24,.12,5.2,0,9.42-6.29,9.42-14.06s-4.22-14.06-9.42-14.06Z"/>
              <path class="cls-24" d="M108.88,107.29c0-7.14-3.57-13.03-8.19-13.93-4.62,.9-8.19,6.79-8.19,13.93s3.57,13.03,8.19,13.93c4.62-.9,8.19-6.79,8.19-13.93Z"/>
            </g>
            <path class="cls-1" d="M104.37,102.94s-.86,8.21-3.68,8.09c-2.82-.12-4.29,3.43-1.35,4.66,2.94,1.23,6.23-4.17,5.02-12.74Z"/>
            <path class="cls-1" d="M100.69,100.97c0,1.48-.66,2.68-1.48,2.68s-1.48-1.2-1.48-2.68,.66-2.68,1.48-2.68,1.48,1.2,1.48,2.68Z"/>
            <rect class="cls-11" x="80.91" y="79.05" width="1.96" height="5.27"/>
            <rect class="cls-11" x="85.69" y="79.05" width="1.96" height="5.27"/>
            <rect class="cls-11" x="90.46" y="79.05" width="1.96" height="5.27"/>
            <rect class="cls-11" x="95.24" y="79.05" width="12.6" height="5.27"/>
            <path class="cls-1" d="M82.87,69.25c0,.59-.48,1.06-1.06,1.06s-1.06-.48-1.06-1.06,.48-1.06,1.06-1.06,1.06,.48,1.06,1.06Z"/>
            <path class="cls-1" d="M78.38,69.25c0,.59-.48,1.06-1.06,1.06s-1.06-.48-1.06-1.06,.48-1.06,1.06-1.06,1.06,.48,1.06,1.06Z"/>
            <path class="cls-1" d="M73.88,69.25c0,.59-.48,1.06-1.06,1.06s-1.06-.48-1.06-1.06,.48-1.06,1.06-1.06,1.06,.48,1.06,1.06Z"/>
            <path class="cls-1" d="M57.21,69.25c0,.59-.48,1.06-1.06,1.06s-1.06-.48-1.06-1.06,.48-1.06,1.06-1.06,1.06,.48,1.06,1.06Z"/>
            <rect class="cls-12" x="91.44" y="129.28" width="16.39" height="9.92"/>
          </g>
          <g>
            <path class="cls-4" d="M70.3,51.4s.85,5,.34,5.02c-1.3,.08-8.08,2.63-8.08,2.63l2.05,5.26,9.58-2.57s2.5-.68,2.17-4.41c-.33-3.73-.91-8.25-.91-8.25l-5.15,2.31Z"/>
            <g>
              <path class="cls-5" d="M109.84,60.51c7.57-1.56,13.29-7.14,15.38-14.06l-16.55,3.42-8.37-8.28,4.45-10.71,.05,.03,16.53-3.41c-4.66-5.55-12.13-8.43-19.72-6.86-8.04,1.66-13.97,7.86-15.71,15.37L21.35,49.34c-4.59,.95-7.54,5.43-6.59,10.02,.95,4.59,5.43,7.54,10.02,6.59l64.55-13.33c4.57,6.21,12.47,9.55,20.51,7.89Zm-91.1-1.98c-.51-2.48,1.08-4.9,3.56-5.41,2.48-.51,4.9,1.08,5.41,3.56,.51,2.48-1.08,4.9-3.56,5.41-2.48,.51-4.9-1.08-5.41-3.56Z"/>
              <path class="cls-22" d="M57.89,23.46h.33c2.93,0,5.31,2.38,5.31,5.31v43.2c0,2.93-2.38,5.31-5.31,5.31h-.33c-2.93,0-5.31-2.38-5.31-5.31V28.77c0-2.93,2.38-5.31,5.31-5.31Z" transform="translate(95.65 -16.66) rotate(78.34)"/>
            </g>
            <polygon class="cls-3" points="54.61 57.62 54.61 55.2 60.13 57.21 59.35 58.69 54.61 57.62"/>
            <g>
              <polygon class="cls-4" points="59.48 56.68 58.99 58.64 53.53 57.63 54.21 53.53 55.86 51.44 59.48 56.68"/>
              <path class="cls-21" d="M57.95,44.22s-1.27,2.58-1.16,4.84c.11,2.26-.93,2.38-.93,2.38l-1.65,2.5s-1.27-2.45-1.72-3.93c-.45-1.48-.92-4.8-.92-4.8,0,0,1.36-5.49,6.38-5.86,5.02-.37,5.91,3.7,5.91,3.7l2.05,.8s.82,.1,.68,1.48c-.15,1.38-.39,1.92-.39,1.92,0,0-4.13-4.54-8.24-3.04Z"/>
              <path class="cls-4" d="M67.35,49.07c0,1.09-.89,1.98-1.98,1.98s-1.98-.89-1.98-1.98,.89-1.98,1.98-1.98,1.98,.89,1.98,1.98Z"/>
              <path class="cls-10" d="M65.91,43.86s.63,5.78,0,8.1c-.63,2.32-2.32,4.6-5.05,4.71s-4.82-3.14-4.97-4.86-1.12-7.57,.79-8.84c1.91-1.26,9.23,.89,9.23,.89Z"/>
              <path class="cls-4" d="M55.71,44.74h.85s8.84-.18,9.35-.87l-9.41,.4-.79,.15v.33Z"/>
              <circle class="cls-10" cx="55.51" cy="49.46" r="1.98"/>
              <path class="cls-19" d="M58.88,43.85c-1.84,.27-7.31,1.37-7.31,1.37,0,0-1.17-8.6,8.05-8.6,5.8,0,6.29,7.24,6.29,7.24,0,0-2.59-.65-7.03-.01Z"/>
              <path class="cls-1" d="M63.39,52.15l-3.38-.41s-.11,1.72,1.2,1.98,2.18-1.57,2.18-1.57Z"/>
              <path class="cls-21" d="M61.99,46.39s-2.02-1.42-3.48-.52c-1.46,.9,1.72-2.62,3.48,.52Z"/>
              <path class="cls-21" d="M66.13,46.39s-1.01-1.11-1.74-.41c-.73,.7,.86-2.05,1.74,.41Z"/>
              <ellipse class="cls-21" cx="60.32" cy="47.48" rx=".42" ry=".72"/>
              <ellipse class="cls-21" cx="65.03" cy="47.48" rx=".35" ry=".59"/>
              <path class="cls-23" d="M63.63,48.35s.09,.56,.79,.97c.69,.41,.48,1.01-.39,1.08-.86,.07-.87-1.59-.4-2.06Z"/>
              <path class="cls-16" d="M56.5,44.26s.72-1.69,3.81-2.02c3.09-.34,8.4-.11,8.7,.64,.3,.75-3.11,.99-3.11,.99,0,0-.16-.21-9.41,.4Z"/>
            </g>
            <g>
              <path class="cls-21" d="M79.2,134.35s-.15,2.97,3.86,4.29c4.01,1.32,5.15,2.78,2.09,3.68-3.06,.9-11.65,.46-11.65,.46,0,0-.63-3-.01-4.56l-.29-3.08,6-.78Z"/>
              <path class="cls-21" d="M42.68,132.83s-2.69,1.94-1.03,6.35c1.66,4.41,1.18,6.42-1.74,4.39s-8.53-9.81-8.53-9.81c0,0,2.17-2.64,3.96-3.2l2.48-2.4,4.87,4.67Z"/>
              <path class="cls-16" d="M48.78,70.67s-2.02,12.97-1.12,16.19c.9,3.22,18.06,4.34,18.06,4.34,0,0,1.57-13.8,0-20.53-1.57-6.73-1.8-5.39-1.8-5.39l3.22-.76,4.18-1.12-2.24-6.7-8.73,1.62-2.36-.44-4.94-.79-1.45,.28-3.21,1.58,.39,11.72Z"/>
              <polygon class="cls-16" points="53.2 57.51 53.2 55.09 58.72 57.1 57.94 58.58 53.2 57.51"/>
              <path class="cls-19" d="M77.28,113.98c-1.93-8.31-7.56-16.37-11.67-21.41,.3-1.06,.5-1.86,.56-2.28,.34-2.75,.17-8.92,.17-8.92,.73-3.98-.39-11.11-.39-11.11h-.9c-3.09-11.11-5.71-11.62-5.71-11.62l-.37-.07c3.8,3.01,5.16,11.91,5.16,11.91l-3.14,.22s-.52-2.84-1.94-7.44c-1.42-4.6-4.37-5.7-5.93-6.18-1.57-.47-1.51,.27-1.51,.27,4.94,.19,8.08,13.91,8.08,13.91l-.64,.22c-2.47,1.23-2.36,10.32-4.15,12.34-1.8,2.02-8.34,1.01-8.34,1.01,0,0-.86,8.86,0,12.34,.86,3.48,.48,6.51,0,13.13-.48,6.62-9.42,16.9-9.53,19.6s5.24,3.48,5.24,3.48c0,0,13.31-12.89,15.43-18.03,.46-1.11,1.28-3.29,2.23-5.93,1.33,1.09,2.65,2.16,3.74,3.01,3.95,3.07,6.86,21.39,7.51,22.69,.65,1.3,8.84-.97,8.84-.97,0,0,.44-6.5-2.74-20.19Z"/>
              <g>
                <path class="cls-3" d="M67.15,64.53l4.18-1.12-2.24-6.7-8.73,1.62s2.68,3.56,3.78,6.92l3.01-.72Z"/>
                <path class="cls-8" d="M64.16,65.31c.05,.16,.12,.31,.22,.46-.09-.22-.16-.37-.22-.46Z"/>
              </g>
              <path class="cls-3" d="M53.84,64.31s-.48,14.71-3.31,15.99c-2.82,1.27-2.62-2.27-2.62-2.27l.87-8.11,5.05-5.61Z"/>
              <path class="cls-20" d="M59.93,109.44c-2.85-1.61-10.44-8.82-13.57-13.32,.05,.4,.12,.76,.2,1.08,.86,3.48,.48,6.51,0,13.13-.48,6.62-9.42,16.9-9.53,19.6s5.24,3.48,5.24,3.48c0,0,13.31-12.89,15.43-18.03,.58-1.41,.94-2.31,2.23-5.93Z"/>
              <g>
                <g>
                  <polygon class="cls-14" points="62.03 75.33 62.25 75.52 63.07 78.47 63.32 78.4 62.5 75.44 62.61 75.16 62.18 74.47 62.03 74.51 62.03 75.33"/>
                  <polygon class="cls-1" points="62.25 75.52 63.07 78.47 63.2 78.43 62.11 74.49 62.03 74.51 62.03 75.33 62.25 75.52"/>
                </g>
                <path class="cls-13" d="M63.64,78.28l-.9,.25c-.05,.01-.08,.07-.07,.12,.01,.05,.07,.08,.12,.07l.08-.02,.04,.14c-.05,.06-.07,.13-.04,.21l.85,3.09c.03,.12,.16,.19,.28,.16l.44-.12c.12-.03,.19-.16,.16-.28l-.85-3.09c-.02-.08-.08-.13-.14-.16l-.04-.14,.13-.04c.05-.01,.08-.07,.07-.12-.01-.05-.07-.08-.12-.07Z"/>
                <path class="cls-7" d="M63.15,78.41l-.41,.11c-.05,.01-.08,.07-.07,.12,.01,.05,.07,.08,.12,.07l.08-.02,.04,.14c-.05,.06-.07,.13-.04,.21l.85,3.09c.03,.12,.16,.19,.28,.16l.2-.06-1.05-3.83Z"/>
              </g>
              <g>
                <path class="cls-12" d="M67.55,75.57c.13-.64-.12-1.27-.59-1.67l-.28,1.4-.92,.38-.69-.7h0s.28-1.41,.28-1.41c-.59,.18-1.06,.67-1.19,1.31-.14,.68,.15,1.35,.68,1.74l-1.1,5.48c-.08,.39,.17,.77,.56,.85,.39,.08,.77-.17,.85-.56l1.1-5.48c.64-.15,1.16-.66,1.3-1.34Zm-3.17,7.04c-.21-.04-.35-.25-.3-.46,.04-.21,.25-.35,.46-.3,.21,.04,.35,.25,.3,.46s-.25,.35-.46,.3Z"/>
                <path class="cls-6" d="M64.61,81.52h-.03c-.24-.05-.4-.29-.35-.54l.79-3.94c.05-.24,.29-.4,.53-.35h.03c.24,.05,.4,.29,.35,.54l-.79,3.94c-.05,.24-.29,.4-.53,.35Z"/>
              </g>
              <path class="cls-20" d="M66.8,80.13l-.22,8.99-1.6-.11c-6.3-.25-5.09-9.4-5.09-9.4l6.24,.56,.67-.04Z"/>
            </g>
            <g>
              <g>
                <path class="cls-21" d="M41.7,91.7s1.18-.18,1.49,1.11,.17,1.99,.17,1.99l1.41,.43s.72-3.99-2.91-4.74-.16,1.21-.16,1.21Z"/>
                <g>
                  <path class="cls-3" d="M41.5,105.98l6.66,3.25,3.3-10.88-6.11-3.22-1.53,.41s-.52,3.21-.6,3.6c-.08,.4-1.72,6.84-1.72,6.84Z"/>
                  <polygon class="cls-17" points="48.16 109.23 30.17 106.57 26.51 104.66 41.5 105.98 48.16 109.23"/>
                  <path class="cls-16" d="M51.46,98.34s-6.39-3.66-6.87-2.54c-.48,1.12-3.09,10.18-3.09,10.18l-14.99-1.32,2.86-10.81s.38-.9,2.19-1.09c1.81-.19,13.63,1.75,13.63,1.75,0,0,6.46,2.73,6.27,3.83Z"/>
                </g>
                <g>
                  <polygon class="cls-17" points="28.21 98.23 43.36 99.67 43.23 100.09 28.21 98.75 28.21 98.23"/>
                  <polygon class="cls-17" points="32.92 97.5 32.06 100.34 30.68 100.34 31.58 97.5 32.92 97.5"/>
                  <polygon class="cls-17" points="38.99 97.94 38.13 100.78 36.75 100.78 37.64 97.94 38.99 97.94"/>
                </g>
                <path class="cls-21" d="M37.41,91.36s-1.28,.29-1.48,1.78l-1.04-.13s.7-2.12,1.68-2.22l.84,.57Z"/>
              </g>
              <path class="cls-10" d="M42.44,72.51s-2.11,1-2.05,3.14c.08,2.75,1.26,10.33,1.26,10.33,0,0,1.25,.47,1.57,1.41s.09,2.9,.62,3.5c.53,.61-.15,.51-.7-.03-.55-.53-1-1.49-1.1-1.23-.1,.26,.31,2.01-.02,2.23-.33,.22-1.4-.16-1.7-.04-.3,.12-1.25,.12-1.65-.11-.4-.23-.93-.24-1.26-.36-.33-.12-.78-.21-1.09-1.09-.31-.88,1.09-4.11,1.09-4.11,0,0-3.18-9.46-2.69-13.33,.49-3.87,3.57-6.44,3.57-6.44l4.15,6.12Z"/>
              <path class="cls-16" d="M50.43,58.67s5.99,4.48,2.1,8.22c-4.01,3.85-9.86,6.72-9.86,6.72l-5.12-8.45c2.11-1.8,10.48-6.91,12.88-6.49Z"/>
            </g>
          </g>
        </g>
      </g>
      <g>
        <path class="cls-8" d="M172.3,69.72c-4.33,4.59-8.07,9.81-10.52,15.65-2.26,5.4-3.28,11.33-2.62,17.16,.36,3.19,1.24,6.33,2.69,9.2,.13,.26,.09,.58-.18,.74-.23,.14-.61,.09-.74-.18-1.34-2.67-2.22-5.52-2.68-8.47-.45-2.93-.47-5.91-.13-8.85,.35-3.03,1.11-5.99,2.2-8.84,1.15-3.02,2.64-5.89,4.4-8.59,1.77-2.73,3.79-5.29,5.98-7.7,.27-.3,.54-.59,.82-.88,.48-.5,1.26,.24,.78,.75h0Z"/>
        <path class="cls-18" d="M173.55,68.03c1.03,.85,2.4,1.14,3.72,1.29,4.07,.46,8.27-.23,11.98-1.95,1.35-.63,2.7-1.45,3.43-2.76,.94-1.7,.58-3.92-.56-5.5-1.14-1.58-2.92-2.59-4.77-3.2-3.27-1.08-7.13-.94-9.84,1.18-1.12,.87-1.99,2.02-2.8,3.18-.78,1.12-1.54,2.3-1.85,3.63-.31,1.33-.28,3.17,.68,4.14Z"/>
        <g>
          <path class="cls-18" d="M158.49,102.13c-.93-3.58-5.03-6.95-8.72-6.8-.75,.03-1.52,.17-2.18,.53-.88,.48-1.52,1.33-1.93,2.25-.31,.69-.5,1.44-.42,2.19,.16,1.51,1.44,2.72,2.86,3.24,1.43,.52,2.99,.49,4.51,.4,2.09-.12,4.34-.38,5.87-1.81Z"/>
          <path class="cls-8" d="M146.89,99.68c.68-.28,1.37-.56,2.05-.84,0-.11,.06-.21,.17-.25-.02-.15-.06-.3-.1-.45-.09-.31-.21-.61-.38-.9-.17-.3,.29-.59,.46-.28,.19,.34,.35,.7,.45,1.07,.05,.19,.09,.38,.11,.57,0,.03,0,.06,0,.09,1.21,.32,2.4,.68,3.58,1.09-.34-.8-.69-1.6-1.03-2.4-.14-.32,.38-.47,.52-.16,.23,.54,.46,1.07,.69,1.61,.11,.25,.22,.51,.33,.76,.06,.14,.14,.29,.21,.44,1.43,.53,2.83,1.12,4.2,1.79,.31,.15,.05,.62-.26,.47-1.27-.62-2.57-1.17-3.88-1.67-.16,.32-.72,.39-1.03,.48-.55,.17-1.11,.33-1.66,.5-.33,.1-.49-.42-.16-.52,.47-.14,.95-.29,1.43-.43,.24-.07,.47-.14,.71-.21,.04-.01,.08-.02,.13-.04-1.3-.47-2.62-.88-3.96-1.22-.16,.11-.36,.16-.54,.24-.2,.08-.4,.17-.61,.25-.42,.17-.85,.35-1.27,.52-.13,.06-.3-.05-.34-.18-.05-.15,.04-.28,.18-.34Z"/>
        </g>
        <g>
          <path class="cls-18" d="M158.89,91.56c2.52-2.15,5.92-3.22,9.22-2.92,1.06,.1,2.16,.36,2.96,1.05,1.18,1.02,1.49,2.84,.91,4.29-.57,1.45-1.89,2.53-3.35,3.06-1.96,.71-4.22,.52-6.03-.52-1.81-1.04-3.34-2.93-3.72-4.98Z"/>
          <path class="cls-8" d="M159.86,91.19c.71,.27,1.43,.27,2.18,.24,.33-.01,.65-.02,.98-.01,.06-.12,.14-.23,.25-.32,.49-.45,1.09-.72,1.71-.95,.52-.2,1.11-.37,1.54-.72,.23-.18,.53-.24,.76-.02,.19,.18,.24,.58,.02,.76-.47,.38-.99,.63-1.55,.84-.43,.16-.86,.31-1.26,.53,1.45,.26,2.84,.85,4.32,.88,.69,.01,.73,1.09,.04,1.08-1.36-.03-2.62-.47-3.93-.77,.48,.51,.97,1.01,1.47,1.5,.5,.48-.24,1.26-.75,.78-.59-.57-1.17-1.16-1.72-1.77-.22-.24-.45-.49-.66-.74-1.23-.03-2.48,.18-3.64-.26-.27-.1-.47-.34-.4-.65,.06-.25,.38-.5,.65-.4Z"/>
        </g>
        <g>
          <path class="cls-18" d="M162.3,81.95c.67-2.81,.71-3.49,.73-5.93,0-.35-.4-2.6-.59-2.9-.86-1.3-1.5-1.65-2.51-2.15-.82-.4-1.71-.43-2.62-.51-2.01-.19-4.08,1.45-4.12,3.47-.04,2.05,1.72,3.64,3.45,4.73,1.78,1.12,3.68,2.6,5.66,3.29Z"/>
          <path class="cls-8" d="M156.2,75.67c.75,.12,1.49,.29,2.22,.52,.2,.06,.41,.13,.61,.2-.78-.9-1.63-1.75-2.54-2.52-.4-.34,.16-.92,.56-.59,1.23,1.05,2.36,2.23,3.36,3.5,.01-.12,.06-.26,.09-.38,.06-.29,.12-.58,.15-.87,.06-.55,.03-1.14-.24-1.64-.25-.46,.44-.88,.69-.42,.34,.64,.42,1.35,.36,2.07-.04,.38-.1,.75-.18,1.12-.06,.29-.12,.6-.34,.81,.91,1.24,1.7,2.57,2.36,3.97,.09,.2,.07,.43-.13,.56-.17,.11-.46,.06-.56-.13-.71-1.5-1.58-2.92-2.57-4.24-.05-.01-.1-.03-.15-.05-.42-.15-.82-.33-1.24-.47-.85-.29-1.73-.5-2.62-.65-.51-.08-.32-.87,.19-.79Z"/>
        </g>
        <g>
          <path class="cls-18" d="M165.1,78.15c2.9-3.51,7.8-5.24,12.26-4.34,1.46,.3,2.95,.91,3.83,2.12,1.44,1.97,.65,4.99-1.26,6.51-1.91,1.52-4.59,1.75-6.97,1.23-3.07-.67-6.02-2.97-7.85-5.52"/>
          <path class="cls-8" d="M165.85,77.69c.94-.33,1.91-.51,2.9-.61,.04-.09,.1-.18,.17-.26,.55-.62,1.19-1.18,1.78-1.77,.49-.49,1.27,.25,.78,.75-.31,.31-.63,.63-.95,.94-.08,.08-.17,.16-.25,.25,.38-.01,.76-.02,1.14-.02,.21,0,.42,0,.63,0,.64-.38,1.28-.76,1.92-1.14,.35-.21,.7-.42,1.05-.63,.4-.23,.75-.5,1.23-.43,.29,.04,.46,.39,.4,.65-.07,.28-.31,.41-.57,.41,0,0,0,0-.02,.01-.04,.02-.08,.05-.12,.07-.07,.04-.15,.09-.22,.13-.16,.1-.32,.19-.48,.29-.32,.19-.64,.38-.97,.57-.03,.02-.05,.03-.08,.05,1.17,0,2.33-.01,3.5-.02,.69,0,.73,1.07,.04,1.08-1.44,0-2.87,.02-4.31,.03,1,.86,2.02,1.74,3.28,2.16,.28,.09,.47,.35,.4,.65-.06,.26-.37,.49-.65,.4-1.84-.63-3.2-2.01-4.69-3.2-.07,0-.14,0-.21,0-.37,0-.75,.01-1.12,.02,.04,.04,.08,.08,.12,.12,.32,.29,.67,.54,1.03,.78,.74,.49,1.5,.99,1.97,1.77,.36,.59-.56,1.16-.92,.57-.32-.52-.81-.88-1.31-1.22-.59-.4-1.19-.79-1.7-1.29-.21-.2-.4-.42-.58-.64-.98,.09-1.95,.26-2.88,.59-.66,.23-.97-.8-.31-1.03Z"/>
        </g>
        <path class="cls-8" d="M171.93,68.51c1.47-.9,2.7-2.11,4.04-3.18-.09-.29-.03-.61,0-.92,.04-.48,.07-.95,.09-1.43,.03-.96,0-1.91-.1-2.86-.03-.29,.24-.55,.52-.56,.31-.01,.53,.23,.56,.52,.08,.87,.12,1.74,.11,2.61,0,.43-.03,.85-.06,1.28-.01,.19-.03,.38-.05,.56,.04-.03,.09-.06,.13-.09,1.29-.88,2.7-1.55,4.16-2.11,.02-.17,.06-.35,.12-.51,.15-.43,.37-.82,.51-1.26,.14-.45,.23-.92,.25-1.39,.01-.29,.21-.55,.52-.56,.27,0,.57,.23,.56,.52-.04,.87-.24,1.69-.59,2.49-.03,.07-.07,.16-.11,.26,.18-.06,.36-.12,.53-.18,1.17-.38,2.36-.7,3.55-1.02,.67-.18,.99,.85,.31,1.03-1.48,.4-2.97,.81-4.42,1.31,.04,.03,.08,.06,.13,.08,.32,.14,.72,.14,1.06,.18,.42,.05,.84,.12,1.26,.19,.83,.15,1.66,.33,2.48,.55,.67,.18,.42,1.23-.25,1.05-.92-.25-1.85-.45-2.79-.6-.45-.07-.89-.13-1.34-.19-.38-.05-.77-.12-1.09-.33-.22-.15-.39-.34-.5-.55-.23,.09-.45,.18-.68,.27-.97,.41-1.91,.89-2.79,1.47-.03,.02-.06,.05-.1,.07,.59,.21,1.23,.44,1.34,.48,.87,.3,1.74,.59,2.61,.89,.28,.09,.47,.35,.4,.65-.06,.26-.37,.49-.65,.4-.94-.32-1.88-.64-2.81-.96-.47-.16-.94-.32-1.41-.48-.18-.06-.39-.11-.59-.18-.46,.36-.9,.73-1.34,1.11-.96,.82-1.92,1.65-3,2.31-.59,.36-1.16-.55-.57-.92Z"/>
      </g>
      <g>
        <path class="cls-8" d="M191.69,106.38c-2.33,2.73-5.06,5.17-8.22,6.91-2.92,1.61-6.21,2.55-9.56,2.53-1.83,0-3.66-.32-5.37-.96-.16-.06-.33-.01-.41,.15-.07,.14-.01,.35,.15,.41,1.59,.6,3.26,.92,4.96,1,1.69,.08,3.37-.1,5.02-.47,1.69-.38,3.33-.99,4.87-1.78,1.64-.84,3.17-1.86,4.6-3.01,1.44-1.17,2.77-2.47,3.99-3.86,.15-.17,.3-.34,.45-.52,.26-.3-.21-.7-.47-.4h0Z"/>
        <path class="cls-18" d="M192.56,105.57c-.54-.53-.79-1.29-.96-2.03-.51-2.28-.38-4.69,.37-6.9,.27-.8,.66-1.62,1.35-2.11,.91-.64,2.19-.57,3.15-.02,.96,.55,1.64,1.49,2.1,2.5,.81,1.78,.97,3.98-.06,5.64-.42,.69-1.02,1.25-1.63,1.78-.59,.51-1.21,1.01-1.94,1.27-.73,.26-1.78,.35-2.38-.13Z"/>
        <g>
          <path class="cls-18" d="M174.18,116.18c2.08,.31,4.24,2.42,4.38,4.52,.03,.43,0,.87-.17,1.27-.22,.53-.66,.94-1.15,1.23-.37,.22-.79,.37-1.21,.37-.87,0-1.63-.65-2.01-1.42s-.46-1.66-.5-2.53c-.06-1.19-.05-2.48,.67-3.43Z"/>
          <path class="cls-8" d="M176.28,122.6c.12-.4,.23-.81,.35-1.21,.06,0,.12-.05,.13-.11,.09,0,.18,.01,.26,.03,.18,.03,.36,.08,.53,.16,.18,.08,.31-.2,.13-.28-.2-.09-.42-.15-.64-.19-.11-.02-.22-.03-.33-.03-.02,0-.03,0-.05,0-.25-.67-.53-1.32-.84-1.96,.47,.15,.95,.29,1.42,.44,.19,.06,.24-.24,.06-.3-.32-.1-.63-.19-.95-.29l-.45-.14c-.08-.02-.17-.06-.26-.09-.39-.78-.81-1.53-1.27-2.27-.1-.17-.36,0-.25,.18,.43,.68,.82,1.38,1.18,2.1-.17,.11-.18,.43-.21,.61-.06,.32-.12,.65-.18,.97-.04,.19,.27,.25,.3,.06l.16-.83c.03-.14,.05-.28,.08-.42,0-.02,0-.05,.01-.07,.34,.71,.66,1.43,.94,2.17-.05,.1-.07,.22-.1,.32-.03,.12-.07,.24-.1,.36-.07,.25-.14,.5-.22,.75-.02,.08,.05,.17,.12,.18,.09,.02,.16-.04,.18-.12Z"/>
        </g>
        <g>
          <path class="cls-18" d="M180.14,115.31c1.06-1.56,1.46-3.55,1.09-5.4-.12-.59-.33-1.2-.78-1.61-.65-.61-1.7-.67-2.49-.26-.79,.41-1.32,1.22-1.53,2.09-.28,1.15-.04,2.42,.66,3.38s1.86,1.71,3.04,1.8Z"/>
          <path class="cls-8" d="M180.29,114.74c-.2-.38-.24-.79-.27-1.22-.01-.19-.03-.37-.05-.56,.06-.04,.12-.1,.17-.16,.23-.3,.34-.66,.43-1.02,.08-.31,.14-.65,.32-.92,.09-.14,.1-.32-.04-.43-.11-.1-.34-.1-.43,.04-.19,.29-.3,.6-.38,.93-.07,.25-.12,.51-.22,.75-.23-.8-.65-1.55-.76-2.39-.05-.39-.66-.35-.61,.04,.1,.77,.43,1.46,.68,2.18-.32-.24-.63-.49-.94-.74-.3-.25-.7,.21-.4,.47,.36,.3,.73,.59,1.11,.87,.15,.11,.3,.22,.46,.33,.09,.69,.05,1.41,.37,2.05,.08,.15,.22,.25,.39,.19,.14-.05,.26-.24,.19-.39Z"/>
        </g>
        <g>
          <path class="cls-18" d="M185.37,112.79c1.55-.55,1.93-.62,3.31-.77,.2-.02,1.5,.07,1.68,.16,.79,.41,1.03,.75,1.37,1.29,.28,.44,.35,.94,.45,1.45,.23,1.12-.57,2.4-1.71,2.54-1.16,.15-2.17-.75-2.89-1.67-.74-.94-1.7-1.92-2.21-3.01Z"/>
          <path class="cls-8" d="M189.3,115.86c-.12-.42-.26-.83-.43-1.22-.05-.11-.1-.22-.15-.33,.56,.39,1.09,.82,1.58,1.28,.22,.2,.51-.15,.3-.35-.67-.63-1.4-1.2-2.18-1.69,.07-.01,.14-.05,.21-.07,.16-.05,.32-.1,.48-.14,.31-.07,.64-.09,.94,.03,.27,.11,.47-.3,.2-.42-.38-.16-.79-.16-1.19-.07-.21,.04-.42,.1-.62,.17-.16,.05-.34,.1-.44,.24-.76-.44-1.56-.81-2.39-1.1-.12-.04-.25-.01-.31,.11-.05,.1,0,.27,.11,.31,.89,.31,1.75,.71,2.56,1.2,.01,.03,.02,.06,.04,.08,.11,.23,.24,.44,.34,.67,.21,.47,.39,.95,.53,1.44,.08,.29,.51,.13,.43-.15Z"/>
        </g>
        <g>
          <path class="cls-18" d="M187.35,110.98c1.81-1.86,2.49-4.73,1.71-7.21-.26-.81-.7-1.61-1.43-2.04-1.2-.69-2.86-.07-3.61,1.11-.74,1.17-.71,2.71-.27,4.02,.57,1.7,2.05,3.23,3.6,4.11"/>
          <path class="cls-8" d="M187.57,110.53c.13-.55,.17-1.12,.17-1.68,.05-.03,.1-.07,.14-.11,.32-.35,.6-.74,.89-1.11,.25-.31-.22-.71-.47-.4l-.47,.59c-.04,.05-.08,.1-.12,.16-.02-.22-.03-.43-.06-.64-.01-.12-.02-.24-.04-.36,.18-.39,.35-.77,.53-1.16l.29-.64c.11-.24,.23-.45,.17-.72-.04-.16-.25-.24-.39-.19-.15,.05-.21,.2-.19,.35,0,0,0,0,0,.01-.01,.03-.02,.05-.03,.07-.02,.04-.04,.09-.06,.13-.04,.1-.09,.19-.13,.29-.09,.19-.18,.39-.27,.58,0,.02-.01,.03-.02,.05-.07-.66-.13-1.32-.2-1.98-.04-.39-.65-.35-.61,.04,.08,.81,.17,1.63,.25,2.44-.55-.51-1.11-1.04-1.43-1.72-.07-.15-.23-.25-.39-.19-.14,.05-.26,.24-.19,.39,.47,1,1.33,1.69,2.1,2.46,0,.04,0,.08,.01,.12,.02,.21,.04,.42,.06,.64-.02-.02-.05-.04-.07-.06-.18-.16-.35-.34-.5-.53-.33-.39-.65-.79-1.12-1.01-.36-.17-.62,.39-.26,.55,.31,.15,.55,.41,.77,.67,.26,.31,.52,.62,.84,.88,.13,.1,.26,.2,.4,.29,0,.56-.03,1.12-.16,1.67-.09,.39,.51,.5,.6,.11Z"/>
        </g>
        <path class="cls-8" d="M192.39,106.52c.42-.89,1.03-1.66,1.56-2.48,.17,.03,.35-.02,.52-.06,.27-.05,.54-.1,.8-.14,.54-.07,1.08-.11,1.63-.12,.17,0,.3-.17,.28-.33-.01-.17-.16-.29-.33-.28-.5,0-.99,.04-1.48,.1-.24,.03-.48,.07-.72,.11-.11,.02-.21,.04-.32,.06,.01-.03,.03-.05,.04-.08,.42-.78,.71-1.63,.94-2.49,.1-.02,.19-.05,.28-.1,.23-.11,.44-.26,.68-.36,.25-.11,.51-.19,.77-.23,.16-.02,.3-.15,.28-.33-.01-.16-.16-.31-.33-.28-.49,.07-.94,.24-1.38,.49-.04,.02-.09,.05-.14,.08,.02-.1,.05-.21,.07-.31,.14-.69,.25-1.38,.36-2.07,.06-.39-.54-.51-.6-.11-.14,.86-.28,1.73-.47,2.58-.02-.02-.04-.04-.05-.07-.1-.17-.12-.4-.17-.59-.06-.23-.12-.47-.18-.7-.13-.46-.29-.92-.46-1.37-.14-.37-.72-.16-.58,.21,.2,.51,.37,1.02,.51,1.54,.07,.25,.13,.5,.19,.75,.05,.21,.11,.43,.25,.6,.1,.12,.21,.2,.34,.25-.04,.13-.07,.27-.11,.4-.17,.57-.39,1.13-.66,1.67-.01,.02-.02,.04-.03,.06-.15-.32-.32-.67-.35-.73-.22-.48-.44-.95-.66-1.42-.07-.15-.23-.25-.39-.19-.15,.05-.26,.24-.19,.39,.24,.51,.48,1.02,.71,1.53,.12,.26,.24,.51,.36,.77,.05,.1,.09,.21,.14,.32-.17,.28-.36,.55-.55,.83-.41,.59-.82,1.19-1.12,1.84-.17,.36,.38,.62,.55,.26Z"/>
      </g>
      <g>
        <path class="cls-9" d="M125.57,146.19s-2.28-22.68,13.74-21.81c16.02,.87-4.26-30.7,10.09-28.81,14.35,1.89,9.61,9.1,18.92-2.83s25.39-8.32,16.36,5.02c-9.03,13.34-11.22,16.66,.5,19.08,11.72,2.43,4.33,13.45-7.38,12.68-7.57-.5,3.82,10.26,1.51,12.38-2.31,2.12-29.48,2.78-53.73,4.29Z"/>
        <path class="cls-11" d="M139.65,130.55c1.13,.23,2.21,.61,3.25,1.12,1.83,.9,3.5,2.12,5.09,3.42,.82,.66,1.64,1.33,2.42,2.03,.71,.64,1.43,1.35,1.83,2.24,.01,.02,.02,.05,.04,.07-.42,1.13-.85,2.27-1.27,3.45-.26,.72-.49,1.34-.57,1.53-.05,.07-.08,.16-.1,.25-.01,.06-.02,.11-.01,.17l1.52-.07s.03-.07,.04-.1c.11-.29,.26-.71,.46-1.26,1.95-5.37,3.86-10.21,5.73-14.56,.07-.02,.15-.05,.22-.1,.79-.54,1.56-.84,2.4-1.24,.91-.42,1.83-.84,2.76-1.21,1.12-.45,2.29-.74,3.44-1.05,3.2-.87,6.48-1.55,9.8-1.47,.39,0,.7-.39,.68-.77-.02-.42-.36-.7-.75-.71-1.92-.05-3.84,.16-5.73,.51-1.72,.32-3.41,.73-5.09,1.2-1.05,.29-2.1,.58-3.11,1-.98,.41-1.96,.84-2.92,1.3-.25,.12-.51,.24-.77,.36,3.06-6.93,5.99-12.55,8.72-17.12,.14,.06,.3,.08,.48,.02,1.67-.56,3.42-.77,5.17-.66,.39,.02,.7-.4,.68-.77-.02-.43-.36-.68-.75-.71-1.53-.1-3.07,.06-4.55,.44,4.24-6.81,7.97-11.03,10.93-13.66,.3-.27,.33-.73,.08-1.05-.26-.31-.71-.35-1.01-.09-1.31,1.16-2.77,2.62-4.35,4.47-.2-1.16-.57-2.28-1.08-3.35-.18-.37-.69-.41-.99-.22-.36,.22-.38,.68-.21,1.03,.02,.04,.04,.08,.06,.13,0,0,.02,.03,.03,.08,.03,.08,.07,.15,.1,.23,.07,.18,.14,.36,.21,.54,.12,.34,.23,.68,.32,1.03,.05,.19,.09,.38,.13,.57,.04,.19,.04,.22,.07,.38,.06,.37,.09,.74,.11,1.11-2.93,3.66-6.23,8.62-9.8,15.31-.38-1.53-1.23-2.95-2.06-4.23-1.23-1.9-2.82-3.48-4.43-5.03-.68-.65-1.64,.44-.96,1.09,1.48,1.44,2.98,2.88,4.12,4.63,1.08,1.66,2.24,3.52,2.1,5.6,0,.08,.01,.15,.03,.22-2.94,5.75-6.04,12.69-9.25,21.05-.48-.68-1.06-1.27-1.69-1.83-3.29-2.88-6.94-5.93-11.27-6.8-.9-.18-1.22,1.26-.31,1.45Zm11.37,13.54s-.03,0-.05,0c0,0,.02,0,.03,0,0,0,.01,0,.02,0Z"/>
      </g>
      <g>
        <path class="cls-8" d="M51.67,146.1s2.09-14.97-10.27-14.8,3.83-21.19-7.25-20.27-7.56,6.05-14.52-2.47c-6.96-8.53-19.4-6.46-12.69,3.04,6.72,9.5,8.34,11.86-.72,13.23s-3.57,9.22,5.46,9c5.84-.14-3.12,7.02-1.38,8.55s21.86,2.78,41.37,3.72Z"/>
        <path class="cls-18" d="M40.82,134.55c-3.35,.49-6.22,2.5-8.8,4.41-.5,.37-.95,.76-1.33,1.22-2.32-5.89-4.58-10.79-6.75-14.86,.02-.05,.03-.1,.03-.15-.07-1.45,.85-2.71,1.72-3.83,.91-1.18,2.09-2.15,3.26-3.1,.53-.43-.19-1.22-.72-.78-1.26,1.03-2.52,2.09-3.5,3.37-.66,.87-1.34,1.83-1.66,2.88-2.63-4.74-5.08-8.27-7.27-10.89,.02-.26,.06-.51,.11-.77,.02-.11,.03-.13,.06-.26,.03-.13,.07-.26,.11-.39,.07-.24,.16-.48,.26-.71,.05-.12,.11-.25,.17-.37,.03-.05,.05-.1,.08-.16,.02-.03,.02-.05,.03-.05,.02-.03,.03-.06,.05-.09,.13-.24,.13-.56-.14-.72-.23-.14-.62-.13-.76,.13-.41,.73-.71,1.49-.89,2.29-1.18-1.33-2.28-2.38-3.27-3.22-.23-.19-.57-.18-.78,.03-.2,.21-.18,.54,.04,.73,2.23,1.9,5.03,4.93,8.17,9.77-1.14-.3-2.32-.45-3.5-.43-.3,0-.56,.17-.59,.47-.02,.26,.21,.56,.51,.55,1.35-.03,2.69,.17,3.97,.6,.14,.05,.26,.04,.37,0,2.02,3.24,4.17,7.22,6.41,12.12-.2-.09-.39-.18-.59-.27-.73-.34-1.47-.67-2.22-.98-.77-.32-1.57-.55-2.38-.78-1.29-.37-2.58-.71-3.9-.97-1.45-.29-2.92-.49-4.4-.51-.3,0-.57,.18-.59,.47-.02,.26,.21,.55,.51,.55,2.56,.03,5.07,.59,7.52,1.28,.88,.25,1.78,.48,2.63,.82,.71,.28,1.41,.59,2.11,.91,.64,.3,1.23,.53,1.83,.92,.06,.04,.11,.06,.17,.08,1.36,3.07,2.75,6.47,4.15,10.26,.14,.38,.32,.67,.33,.89,0,.11,.29,.1,.64,.13,.05,0,.11-.01,.17,0,.3,0,.51,.06,.39-.08-.04-.05-.04-.13-.07-.18-.06-.13-.22-.57-.41-1.08-.31-.83-.61-1.64-.92-2.43,.01-.02,.02-.03,.03-.05,.32-.61,.89-1.09,1.45-1.51,.62-.47,1.26-.91,1.9-1.35,1.25-.85,2.55-1.66,3.98-2.23,.81-.33,1.65-.56,2.52-.69,.7-.1,.48-1.11-.22-1.01Zm-8.74,10.1s-.02,0-.04,0c0,0,0,0,.01,0,0,0,.02,0,.02,0Z"/>
      </g>
      <g>
        <path class="cls-8" d="M177.77,128.21c-2.19,1.38-4.21,3.07-5.78,5.14-1.45,1.91-2.46,4.16-2.8,6.55-.18,1.3-.16,2.64,.12,3.93,.03,.12-.03,.24-.15,.28-.11,.03-.25-.03-.28-.15-.26-1.2-.32-2.42-.2-3.64,.12-1.21,.42-2.39,.86-3.53,.45-1.17,1.05-2.27,1.78-3.29,.77-1.08,1.65-2.07,2.63-2.96,.98-.9,2.05-1.71,3.16-2.44,.14-.09,.28-.18,.42-.27,.24-.15,.48,.22,.23,.38h0Z"/>
        <path class="cls-18" d="M178.44,127.67c.32,.44,.84,.7,1.35,.89,1.57,.6,3.31,.76,4.96,.45,.6-.11,1.22-.3,1.64-.74,.55-.58,.63-1.5,.34-2.24-.29-.74-.89-1.33-1.57-1.76-1.19-.76-2.73-1.1-4.03-.54-.53,.23-1,.6-1.44,.98-.43,.36-.85,.75-1.11,1.25-.26,.5-.44,1.23-.15,1.71Z"/>
        <g>
          <path class="cls-18" d="M168.96,139.67c0-1.52-1.28-3.28-2.77-3.6-.3-.07-.62-.09-.92-.01-.4,.1-.74,.37-.99,.7-.19,.24-.35,.52-.39,.83-.09,.62,.29,1.23,.81,1.58,.51,.35,1.14,.5,1.75,.62,.84,.17,1.76,.29,2.52-.12Z"/>
          <path class="cls-8" d="M164.6,137.5c.3-.04,.6-.08,.9-.12,.01-.04,.05-.08,.09-.08,0-.06,0-.13,0-.19,0-.13-.02-.27-.06-.39-.04-.14,.17-.2,.21-.07,.04,.15,.07,.31,.07,.47,0,.08,0,.16-.01,.24,0,.01,0,.02,0,.04,.45,.25,.88,.52,1.31,.8-.05-.35-.11-.71-.16-1.06-.02-.14,.2-.15,.22,0,.04,.24,.07,.47,.11,.71,.02,.11,.03,.22,.05,.34,0,.06,.03,.13,.04,.2,.51,.36,1.01,.74,1.49,1.14,.11,.09-.04,.25-.15,.16-.44-.38-.9-.73-1.37-1.06-.1,.11-.33,.08-.46,.09-.24,0-.47,.02-.71,.03-.14,0-.15-.22,0-.22,.2,0,.41-.02,.61-.02,.1,0,.2,0,.31-.01,.02,0,.04,0,.05,0-.47-.32-.95-.62-1.45-.89-.07,.03-.16,.03-.24,.04-.09,.01-.18,.02-.27,.04-.19,.03-.37,.05-.56,.08-.06,0-.11-.05-.12-.11,0-.06,.05-.11,.11-.12Z"/>
        </g>
        <g>
          <path class="cls-18" d="M170.2,135.51c1.22-.59,2.68-.67,3.96-.21,.41,.15,.82,.36,1.07,.72,.37,.53,.3,1.28-.08,1.8-.38,.52-1.01,.81-1.65,.87-.85,.08-1.73-.23-2.34-.82-.61-.6-1.03-1.51-.97-2.36Z"/>
          <path class="cls-8" d="M170.63,135.46c.25,.18,.54,.25,.84,.32,.13,.03,.26,.06,.39,.09,.04-.04,.08-.08,.13-.1,.24-.13,.51-.17,.78-.2,.23-.02,.48-.03,.69-.13,.11-.05,.24-.04,.3,.07,.06,.09,.04,.25-.07,.3-.22,.1-.46,.15-.7,.18-.19,.02-.37,.03-.56,.08,.55,.25,1.04,.63,1.62,.79,.27,.08,.18,.51-.1,.43-.54-.15-.99-.46-1.48-.71,.14,.25,.28,.5,.43,.75,.15,.24-.23,.48-.38,.23-.18-.29-.35-.58-.5-.88-.06-.12-.13-.24-.19-.36-.48-.14-1-.18-1.42-.48-.1-.07-.15-.18-.09-.3,.05-.09,.2-.16,.3-.09Z"/>
        </g>
        <g>
          <path class="cls-18" d="M172.54,132.04c.55-1.05,.64-1.31,.9-2.28,.04-.14,.11-1.08,.06-1.21-.21-.6-.43-.81-.78-1.11-.28-.24-.63-.34-.99-.47-.78-.28-1.77,.16-1.99,.96-.23,.81,.31,1.62,.89,2.23,.59,.63,1.2,1.41,1.91,1.89Z"/>
          <path class="cls-8" d="M170.76,128.92c.29,.13,.56,.27,.83,.43,.07,.05,.15,.09,.22,.14-.22-.44-.47-.86-.75-1.26-.12-.17,.16-.35,.28-.18,.38,.54,.71,1.13,.97,1.73,.02-.05,.05-.1,.07-.14,.05-.11,.11-.22,.15-.33,.08-.21,.13-.45,.07-.67-.05-.21,.27-.31,.32-.1,.07,.29,.03,.58-.07,.86-.05,.15-.12,.29-.19,.43-.05,.11-.11,.23-.22,.29,.23,.59,.41,1.2,.53,1.82,.02,.09-.02,.18-.11,.21-.08,.03-.19-.02-.21-.11-.13-.67-.33-1.32-.59-1.95-.02-.01-.04-.02-.06-.03-.15-.1-.29-.21-.44-.31-.31-.2-.63-.38-.97-.53-.2-.09-.04-.38,.16-.29Z"/>
        </g>
        <g>
          <path class="cls-18" d="M174.04,130.82c1.51-1.1,3.63-1.28,5.31-.47,.55,.27,1.08,.66,1.3,1.23,.37,.93-.25,2.05-1.17,2.46-.91,.41-2,.22-2.9-.23-1.15-.58-2.09-1.8-2.55-3"/>
          <path class="cls-8" d="M174.39,130.72c.41-.04,.81,0,1.21,.06,.03-.03,.06-.06,.1-.09,.28-.19,.59-.35,.89-.52,.25-.14,.48,.23,.23,.38-.16,.09-.31,.18-.47,.28-.04,.02-.08,.05-.12,.07,.15,.03,.3,.07,.45,.11,.08,.02,.17,.04,.25,.06l.88-.25c.16-.05,.32-.09,.48-.14,.18-.05,.35-.12,.53-.04,.11,.05,.14,.2,.09,.3-.05,.1-.16,.13-.27,.1,0,0,0,0,0,0-.02,0-.04,.01-.06,.02-.03,0-.07,.02-.1,.03-.07,.02-.15,.04-.22,.06-.15,.04-.3,.09-.44,.13-.01,0-.02,0-.04,.01,.46,.12,.93,.23,1.39,.35,.28,.07,.18,.5-.1,.43-.57-.14-1.14-.29-1.71-.43,.31,.45,.63,.9,1.08,1.2,.1,.07,.15,.19,.09,.3-.05,.1-.2,.16-.3,.09-.67-.44-1.07-1.13-1.53-1.75-.03,0-.06-.01-.08-.02-.15-.04-.3-.07-.45-.11,.01,.02,.02,.04,.04,.06,.1,.15,.21,.28,.33,.41,.24,.27,.49,.55,.6,.91,.08,.27-.34,.4-.42,.13-.07-.24-.23-.43-.4-.62-.2-.22-.39-.44-.54-.69-.06-.1-.11-.21-.16-.31-.4-.07-.8-.1-1.2-.06-.28,.02-.3-.42-.02-.44Z"/>
        </g>
        <path class="cls-8" d="M177.75,127.69c.68-.21,1.29-.56,1.93-.85,0-.12,.05-.25,.1-.37,.07-.18,.13-.37,.18-.56,.11-.38,.19-.76,.25-1.15,.02-.12,.15-.19,.26-.17,.12,.03,.19,.15,.17,.26-.06,.35-.13,.7-.23,1.05-.05,.17-.1,.34-.15,.5-.02,.07-.05,.15-.08,.22,.02,0,.04-.02,.06-.02,.6-.22,1.23-.34,1.87-.41,.03-.07,.06-.13,.1-.19,.1-.15,.23-.29,.33-.45,.1-.16,.18-.34,.24-.53,.03-.11,.14-.2,.26-.17,.11,.02,.2,.15,.17,.26-.1,.34-.27,.65-.49,.93-.02,.03-.05,.06-.07,.09,.08,0,.15-.01,.23-.02,.5-.03,1.01-.04,1.51-.04,.28,0,.3,.44,.02,.44-.63,0-1.26,.02-1.89,.07,.01,.02,.03,.03,.04,.04,.11,.09,.27,.13,.4,.18,.16,.06,.32,.13,.48,.2,.32,.14,.63,.3,.93,.47,.25,.14,.04,.53-.21,.39-.34-.19-.69-.37-1.05-.53-.17-.07-.34-.14-.51-.21-.14-.06-.29-.13-.4-.24-.07-.08-.12-.17-.14-.27-.1,.01-.2,.02-.3,.04-.43,.06-.85,.16-1.26,.3-.02,0-.03,.01-.05,.02,.21,.14,.44,.3,.48,.33,.32,.21,.63,.41,.95,.62,.1,.07,.15,.19,.09,.3-.05,.1-.2,.16-.3,.09-.34-.22-.68-.45-1.02-.67-.17-.11-.34-.22-.51-.33-.07-.04-.14-.08-.22-.13-.22,.1-.43,.2-.65,.3-.46,.23-.93,.46-1.43,.61-.27,.08-.4-.34-.13-.42Z"/>
      </g>
    </g>
  </g>
</svg>