<?xml version="1.0" encoding="UTF-8"?>
<svg xmlns="http://www.w3.org/2000/svg" viewBox="0 0 184.87 167.85">
  <defs>
    <style>
      .cls-1 {
        fill: #fff;
      }

      .cls-2 {
        fill: #bd2631;
      }

      .cls-3 {
        fill: #f1a393;
      }

      .cls-4 {
        fill: #939190;
      }

      .cls-5 {
        isolation: isolate;
      }

      .cls-6 {
        fill: #be1e2d;
      }

      .cls-7 {
        fill: #696868;
      }

      .cls-8 {
        fill: #ff355b;
      }

      .cls-9 {
        fill: #ff363c;
      }

      .cls-10 {
        fill: #a5dbfd;
      }

      .cls-11 {
        fill: #ffb392;
      }

      .cls-12 {
        fill: #669cb2;
      }

      .cls-13 {
        fill: #353031;
      }

      .cls-14 {
        fill: #fdbfb1;
      }

      .cls-15 {
        fill: #fdfffe;
      }

      .cls-16 {
        fill: #ff6e1d;
      }

      .cls-17 {
        fill: #c1c4cb;
      }

      .cls-18 {
        fill: #059ece;
      }

      .cls-19 {
        fill: #f8ffff;
      }

      .cls-20 {
        fill: #ff9c1a;
      }

      .cls-21 {
        fill: #8dc1db;
      }

      .cls-22 {
        fill: #c1c1c1;
      }

      .cls-23 {
        fill: #d63837;
      }

      .cls-24 {
        fill: #ed1c24;
      }

      .cls-25 {
        fill: #d7edf9;
      }

      .cls-26 {
        fill: #fff3d7;
      }

      .cls-27 {
        fill: #2c2c42;
      }

      .cls-28 {
        fill: #5b5b5b;
      }

      .cls-29 {
        fill: #231f20;
      }

      .cls-30 {
        mix-blend-mode: multiply;
      }

      .cls-31 {
        fill: #ea7878;
      }
    </style>
  </defs>
  <g class="cls-5">
    <g id="Layer_2" data-name="Layer 2">
      <g id="OBJECTS">
        <g>
          <path class="cls-26" d="M82.53,.06s-28.02,2.85-32.74,20.71c-5.89,22.3,5.56,62.83-26.51,76.97s-4.73,83.25,37.41,67.9c42.14-15.35,52.87-21.4,88.25-27.85,49.65-9.05,29.42-62.16,12.53-80.65-21.18-23.19-56.2-1.34-52.42-22.84C115.6-2.98,82.53,.06,82.53,.06Z"/>
          <ellipse class="cls-11" cx="92.44" cy="163.03" rx="92.44" ry="3.43"/>
          <g>
            <g class="cls-30">
              <g>
                <path class="cls-26" d="M78.06,79.37H29.91v53.45h8.41v28.99h3.03v-28.99h12.49v28.99h3.03v-28.99h12.32v28.99h3.03v-28.99h5.82v-53.45Zm-39.93,9.49h31.08v1.9h-31.08v-1.9Zm0,5.11h31.08v1.9h-31.08v-1.9Zm0,5.11h31.08v1.9h-31.08v-1.9Zm0,5.11h31.08v1.9h-31.08v-1.9Zm22.99,24.74h-16.59c-2.61,0-4.21-2.47-2.83-4.38l8.3-11.46c1.3-1.8,4.35-1.8,5.66,0l8.3,11.46c1.38,1.91-.21,4.38-2.83,4.38Z"/>
                <path class="cls-26" d="M55.01,114.79c-1.01-1.46-3.37-1.46-4.38,0l-6.42,9.29c-1.07,1.55,.17,3.55,2.19,3.55h12.84c2.02,0,3.26-2,2.19-3.55l-6.42-9.29Zm-3.39,10.53l1.51-3.29h-3.41l2.31-4.45h1.87l-1.48,2.92h2.96s-3.75,4.82-3.75,4.82Z"/>
              </g>
              <path class="cls-26" d="M23.77,113.63h-4.16v-36.91l2.2-2.96-2.84-9.48h-1.9l-2.68,9.56h0l2.04,2.95v36.84h-4c-.64,0-1.17,.52-1.17,1.17s.52,1.17,1.17,1.17h.96v1.81c-.72,.51-1.19,1.34-1.19,2.28v39.05c0,1.54,1.25,2.8,2.8,2.8h5.49c1.54,0,2.8-1.25,2.8-2.8v-39.05c0-.95-.47-1.78-1.19-2.28v-1.81h1.68c.64,0,1.17-.52,1.17-1.17s-.52-1.17-1.17-1.17Z"/>
              <path class="cls-26" d="M167.53,27.25c-.66,0-1.2,.54-1.2,1.2,0,.57,.4,1.05,.94,1.17v1.23h-5.95l6.59-7.39-.11-.1h0v-1.31h-.01v-.89c.54-.12,.94-.6,.94-1.17,0-.66-.54-1.2-1.2-1.2s-1.2,.54-1.2,1.2c0,.57,.4,1.05,.94,1.17v.89h-12.6v-7.4c0-.66-.46-1.21-1.07-1.35v-.76c.54-.12,.94-.6,.94-1.17,0-.66-.54-1.2-1.2-1.2s-1.2,.54-1.2,1.2c0,.57,.4,1.05,.94,1.17v.74c-.68,.09-1.2,.67-1.2,1.38v7.4h-12.37v-.89c.54-.12,.94-.6,.94-1.17,0-.66-.54-1.2-1.2-1.2s-1.2,.54-1.2,1.2c0,.57,.4,1.05,.94,1.17v.89h-.09v1.31h0l-.11,.1,6.51,7.39h-5.79v-1.23c.54-.12,.94-.6,.94-1.17,0-.66-.54-1.2-1.2-1.2s-1.2,.54-1.2,1.2c0,.57,.4,1.05,.94,1.17v1.23h-.09v1.31h0l-.08,.13,12.98,7.8,.04,.02h.04V108.62c0,.77,.62,1.39,1.39,1.39s1.39-.62,1.39-1.39V40.1h.04l13.17-7.82-.08-.13h0v-1.31h-.01v-1.23c.54-.12,.94-.6,.94-1.17,0-.66-.54-1.2-1.2-1.2Zm.07-3.9l-6.68,7.49h-6.25v-7.49h12.93Zm-15.71,14.51l-5.02-5.7h5.02v5.7Zm2.78-5.7h5.08l-5.08,5.7v-5.7Zm-15.55-8.8h12.77v7.49h-6.18l-6.6-7.49Zm.09,8.8h7.26l5.31,6.03,.05,.05h.07v1.54l-12.68-7.62Zm15.46,7.62v-1.54h.07l5.42-6.08h7.35l-12.83,7.62Z"/>
            </g>
            <g>
              <path class="cls-2" d="M110.61,90.74l16.35,10.75s-8.25,13.7-9.43,32.11c-1.18,18.41-1.91,24.6-1.91,24.6,0,0-.44,5.45-10.9,2.95-6.36-1.52-3.53-44.77,5.6-57l.29-13.4Z"/>
              <path class="cls-9" d="M148.82,90.74l-16.35,10.75s8.25,13.7,9.43,32.11c1.18,18.41,1.91,24.6,1.91,24.6,0,0,.44,5.45,10.9,2.95,6.36-1.52,3.53-44.77-5.6-57l-.29-13.4Z"/>
              <path class="cls-4" d="M125.69,100.38l3.53-5.96s15.38-2.87,14.2-24.67c-1.18-21.8-12.94-24.07-12.94-24.07l.29,32.41s-10.1-2.08-10.98,8.68l-3.8,7.24,9.69,6.37Z"/>
              <path class="cls-7" d="M134.17,100.38l-3.53-5.96s-15.38-2.87-14.2-24.67c1.18-21.8,13.23-24.07,13.23-24.07l.24,32.54s9.28-2.21,10.16,8.54l3.8,7.24-9.69,6.37Z"/>
              <circle class="cls-4" cx="130.76" cy="85.88" r="4.12"/>
            </g>
            <g>
              <g>
                <rect class="cls-12" x="92.16" y="2.99" width="1.92" height="19"/>
                <rect class="cls-12" x="107.16" y="2.99" width="1.92" height="19"/>
                <rect class="cls-12" x="99.66" y="2.99" width="1.92" height="19"/>
                <path class="cls-12" d="M101.59,8.43h-1.93c-1.02,0-1.84-.82-1.84-1.84h0c0-1.02,.82-1.84,1.84-1.84h1.93c1.02,0,1.84,.82,1.84,1.84h0c0,1.02-.82,1.84-1.84,1.84Z"/>
              </g>
              <g>
                <rect class="cls-21" x="89.98" y="21.28" width="28" height="51.26"/>
                <rect class="cls-21" x="75.98" y="21.28" width="28" height="51.26"/>
                <rect class="cls-25" x="82.26" y="21.28" width="21.72" height="51.26"/>
                <polygon class="cls-10" points="103.98 21.28 114.97 13.11 114.97 62.81 103.98 72.54 103.98 21.28"/>
                <rect class="cls-10" x="61.05" y="21.28" width="14.92" height="50.99"/>
                <rect class="cls-24" x="86.95" y="25.89" width="1.69" height="2.53"/>
                <rect class="cls-24" x="90.06" y="25.89" width="1.69" height="2.53"/>
                <rect class="cls-24" x="93.16" y="25.89" width="1.69" height="2.53"/>
                <rect class="cls-24" x="96.26" y="25.89" width="1.69" height="2.53"/>
                <rect class="cls-24" x="99.37" y="25.89" width="1.69" height="2.53"/>
                <g>
                  <rect class="cls-21" x="86.95" y="29.51" width="1.69" height="2.53"/>
                  <rect class="cls-21" x="90.06" y="29.51" width="1.69" height="2.53"/>
                  <rect class="cls-21" x="93.16" y="29.51" width="1.69" height="2.53"/>
                  <rect class="cls-21" x="96.26" y="29.51" width="1.69" height="2.53"/>
                  <rect class="cls-21" x="99.37" y="29.51" width="1.69" height="2.53"/>
                </g>
                <path class="cls-19" d="M94.74,35.33c-4.36,0-7.89,3.53-7.89,7.89h15.79c0-4.36-3.53-7.89-7.89-7.89Z"/>
                <path class="cls-8" d="M95.11,47.68c0,.65-.52,1.17-1.17,1.17s-1.17-.52-1.17-1.17,.52-1.17,1.17-1.17,1.17,.52,1.17,1.17Z"/>
                <path class="cls-21" d="M98.45,47.68c0,.65-.52,1.17-1.17,1.17s-1.17-.52-1.17-1.17,.52-1.17,1.17-1.17,1.17,.52,1.17,1.17Z"/>
                <path class="cls-8" d="M101.79,47.68c0,.65-.52,1.17-1.17,1.17s-1.17-.52-1.17-1.17,.52-1.17,1.17-1.17,1.17,.52,1.17,1.17Z"/>
                <path class="cls-27" d="M88.96,47.68c0,.65-.52,1.17-1.17,1.17s-1.17-.52-1.17-1.17,.52-1.17,1.17-1.17,1.17,.52,1.17,1.17Z"/>
                <path class="cls-27" d="M94.13,41.44v-5.3h-.24v5.3c-.26,.06-.46,.29-.46,.57,0,.32,.26,.58,.58,.58s.58-.26,.58-.58c0-.28-.2-.51-.46-.57Z"/>
                <rect class="cls-20" x="86.22" y="53.35" width="14.4" height="13.37"/>
                <polygon class="cls-24" points="94.57 54.87 90.76 60.19 93.78 60.19 92.23 64.14 96.09 58.35 93.04 58.36 94.57 54.87"/>
              </g>
              <g>
                <rect class="cls-12" x="92.16" y="72.51" width="1.92" height="89.69"/>
                <rect class="cls-12" x="107.16" y="72.51" width="1.92" height="89.69"/>
                <rect class="cls-12" x="99.66" y="72.51" width="1.92" height="89.69"/>
                <path class="cls-12" d="M100.62,98.18h0c-1.55,0-2.8-1.26-2.8-2.8v-11.76c0-1.55,1.26-2.8,2.8-2.8h0c1.55,0,2.8,1.26,2.8,2.8v11.76c0,1.55-1.26,2.8-2.8,2.8Z"/>
              </g>
            </g>
            <g>
              <rect class="cls-4" x="63.6" y="95.61" width="12.69" height="1.4"/>
              <polygon class="cls-22" points="63.6 95.61 66.46 94.86 76.03 94.86 74.67 95.6 63.6 95.61"/>
              <g>
                <polygon class="cls-28" points="63.89 97.01 37.04 162.19 39.5 162.19 65.8 97.01 63.89 97.01"/>
                <polygon class="cls-28" points="71.89 97.01 45.04 162.19 47.5 162.19 73.8 97.01 71.89 97.01"/>
                <polygon class="cls-28" points="68.69 106.64 61.39 106.04 62.19 104.42 69.53 104.7 68.69 106.64"/>
                <polygon class="cls-28" points="64.4 117.56 57.1 116.96 57.9 115.34 65.24 115.62 64.4 117.56"/>
                <polygon class="cls-28" points="58.58 129.6 51.28 129 52.08 127.38 59.42 127.66 58.58 129.6"/>
                <polygon class="cls-28" points="53.14 144.46 45.84 143.86 46.63 142.24 53.98 142.52 53.14 144.46"/>
              </g>
              <g>
                <polygon class="cls-4" points="68.47 97.01 95.32 162.19 92.86 162.19 66.56 97.01 68.47 97.01"/>
                <polygon class="cls-4" points="77.04 97.01 103.9 162.19 101.44 162.19 75.14 97.01 77.04 97.01"/>
                <polygon class="cls-28" points="72.47 106.64 79.77 106.04 78.98 104.42 71.63 104.7 72.47 106.64"/>
                <polygon class="cls-28" points="77.23 118.67 84.53 118.07 83.73 116.45 76.39 116.73 77.23 118.67"/>
                <polygon class="cls-28" points="82.22 130.35 89.52 129.75 88.72 128.12 81.38 128.4 82.22 130.35"/>
                <polygon class="cls-28" points="88.44 145.57 95.75 144.97 94.95 143.35 87.61 143.63 88.44 145.57"/>
              </g>
            </g>
            <g>
              <g>
                <g>
                  <path class="cls-27" d="M65.37,64.05s.94,3.35,2.77,3.82c1.83,.47,1.89-5.77,1.89-5.77v-2.88s-2.13,.34-2.71,.76c-.58,.42-.93,.61-1.68,1.13-1.74,1.19-.28,3.18-.28,3.18"/>
                  <path class="cls-3" d="M68.31,65.09s.08,2.58-.37,3.41c-.45,.83-1.15,1.79-1.15,1.79,0,0,5.7-.78,5.79-.9,.09-.12,.41-3.45,.41-3.45l-4.68-.85Z"/>
                  <path class="cls-14" d="M74.77,59.73s.02,1.18,0,1.3c-.03,.12,.8,2.75,.31,4.48-.49,1.73-2.81,2.63-4.31,1.85-1.5-.79-2.56-1.32-2.91-4.16-.35-2.84-.12-3.78,.44-4.36,.55-.58,5.61-2.03,6.48,.9Z"/>
                  <path class="cls-14" d="M68.06,63.36s-.79-1.12-1.48-.49c-.7,.63-.29,2.52,.58,2.55,.87,.03,1.28-.63,1.28-.63l-.38-1.44Z"/>
                  <path class="cls-20" d="M74.86,59.99s-1.06-1.91-4.42-.99c-2.07,.57-3.4,1.87-3.4,1.87l-2.25,2.28s-2.08-3.9,3.07-6.03c3.9-1.62,6.61,.75,7,2.87Z"/>
                  <path class="cls-16" d="M74.81,60.16c-.07-.08,.07-.9-3.06-.94-.35,0-3.04,.51-3.31,.64,.03-.05,.59-1.42,2.23-2.14,1.18-.52,2.35-.44,3.22-.29,2.89,.49,.92,2.73,.92,2.73Z"/>
                </g>
                <g>
                  <path class="cls-13" d="M71.56,61.16s-.93-.39-1.45,.3c0,0,.47-1.18,1.45-.3Z"/>
                  <path class="cls-13" d="M74.49,61.21s-.69-.64-1.38-.15c0,0,.79-.98,1.38,.15Z"/>
                  <path class="cls-13" d="M70.61,62.3c0,.22-.08,.4-.17,.4s-.17-.18-.17-.4,.08-.4,.17-.4,.17,.18,.17,.4Z"/>
                  <ellipse class="cls-13" cx="73.59" cy="62.28" rx=".18" ry=".42"/>
                  <path class="cls-31" d="M72.72,62.43s.24,.53,.6,.55c.36,.02,.75,.09,.57,.56-.16,.41-1.11,.48-1.25-.09-.14-.57,.08-1.02,.08-1.02Z"/>
                  <path class="cls-1" d="M72.89,65.54l-1.82-.64s-.33,1.13,.46,1.36c.79,.23,1.36-.72,1.36-.72Z"/>
                </g>
              </g>
              <g>
                <path class="cls-14" d="M86.41,72.77s-1.17-.44-1.56,1.03c-.39,1.46-.39,2.74,1.27,2.42,1.66-.31,.28-3.45,.28-3.45Z"/>
                <path class="cls-24" d="M74.59,72.37s1.51,3.39,3.73,2.83c2.22-.55,6.41-1.91,6.41-1.91l.86,3.42s-7.46,3.89-8.74,3.3c-1.28-.59-2.26-1.18-2.26-1.18v-6.46Z"/>
                <path class="cls-29" d="M83.59,61.36s-1.78,4.52,.48,5.61,5.72,.74,5.51,2.54c-.21,1.8-.53,1.96-.53,1.96l.35,.12s1.15-2.47-.07-3.28c-1.22-.81-5.61-.95-5.91-2.56-.3-1.61,.42-4.24,.42-4.24l-.25-.14Z"/>
                <polygon class="cls-29" points="89.92 71.05 89.5 77.7 85.59 77.48 85.93 70.93 89.92 71.05"/>
                <path class="cls-14" d="M90.32,73.8s-.32-2.25-.58-2.04c-.26,.21-.05,1.32-.05,1.32l.64,.73Z"/>
                <path class="cls-14" d="M87.76,70.99s.5-1.12,.77-.75c.28,.37,.19,.78,.19,.78l-.96-.03Z"/>
                <polygon class="cls-17" points="86.24 71.39 86.12 73.14 88.95 73.14 89.06 71.46 86.24 71.39"/>
                <polygon class="cls-18" points="86.24 71.39 86.12 73.14 86.44 73.14 86.57 71.4 86.24 71.39"/>
                <path class="cls-18" d="M88.4,75.31c0,.7-.51,1.27-1.14,1.27s-1.14-.57-1.14-1.27,.51-1.27,1.14-1.27,1.14,.57,1.14,1.27Z"/>
                <path class="cls-17" d="M87.42,74.06c-.55,.09-.98,.61-.98,1.25s.43,1.16,.98,1.25c.55-.09,.98-.61,.98-1.25s-.43-1.16-.98-1.25Z"/>
                <path class="cls-14" d="M90.14,73.31s-1.04-.93-1.38-.94c-.4-.01-.62,.51,.55,1.14,0,0-.74-.38-1.06-.18-.32,.2-.11,.42,.37,.66l.48,.25s-1.28-.32-1.29,0c-.02,.32,.31,.49,1.03,.54,0,0,.14-.06,.56,.36,.31,.3,.2,.89,.2,.89,0,0,1.12-1.82,.54-2.71Z"/>
              </g>
              <path class="cls-6" d="M78.46,79.11c-1.95-.03-3.83-6.55-3.83-6.55l-.03,.12v6.16s.99,.59,2.26,1.18c.5,.23,1.97-.23,3.55-.88h0s0,0-1.95-.03Z"/>
              <path class="cls-29" d="M81.89,109.73s-.55,1.02,0,1.89c.55,.88,3.65,5.03,2.86,5.77-.78,.74-3.8-1.15-3.8-1.15l-4.36-4.15,2.31-3.46,3,1.11Z"/>
              <path class="cls-6" d="M80.18,91.05s6.64,6.46,6.83,9.69c.18,3.23-4.8,9.41-4.8,9.41l-3.88-1.38s3.1-6.8,2.62-7.97c-.49-1.17-5.38-4.58-5.38-4.58,0,0-5.35-.23-7.29-1.09-1.94-.85,11.9-4.08,11.9-4.08Z"/>
              <path class="cls-20" d="M74.29,70.6s2.02,10.88,1.71,17.03c0,0-6.46-.18-12.92,3.81,0,0-.74-9.04-.55-12.06,.18-3.01,1.04-6.42,2.1-7.94,4.11-5.91,9.66-.85,9.66-.85Z"/>
              <path class="cls-29" d="M77.07,103.53s-.65,2.06-.49,2.74c.15,.68,2.4,5.48,1.26,6.27-1.14,.8-1.01,.83-1.81,.25-.8-.58-3.02-4.61-3.72-5.57-.71-.95,.74-3.41,.74-3.41l4.03-.28Z"/>
              <path class="cls-24" d="M63.08,91.45s.86,5.97,7.04,4.03l4.15-2.43-1.48,10.55s1.57,1.85,4.89,0c0,0,4.43-12.24,2.95-16.33-1.31-3.64-11.87,.43-17.56,4.18Z"/>
              <path class="cls-23" d="M84.27,51.24s-1.23,9.92-1.23,9.97,.82,.85,1.4,.12l.92-10.07s-.64-.93-1.08-.02Z"/>
              <polygon class="cls-17" points="84.62 51.03 84.89 48.6 84.7 47.98 85.28 47.17 85.62 48.05 85.29 48.67 85.11 51.12 84.62 51.03"/>
              <path class="cls-16" d="M70.9,73.8s-1.57,6.15-4.71,6.66c-3.14,.51-1.38-6.87-1.38-6.87l6.09,.21Z"/>
              <path class="cls-24" d="M65.39,76.35c-.6-.45-.86-1.22-.74-1.96,.23-1.4,1-4.13,3.53-5.64,3.51-2.09,11.69-10.15,11.69-10.15,0,0,.18,3.51,1.97,3.32,0,0-7.38,8.8-8.61,9.72-1.09,.82-5.35,6.57-7.83,4.71Z"/>
              <path class="cls-14" d="M79.9,58.92s1.25-1,1.39-1.46,.32-3.92,.32-3.92l2.05-1.71s.31,.28,.12,.74c-.18,.46-1.31,1.21-1.31,1.21l-.06,.92,1.2-.91,1.43,.18s.38,.23,.2,.46l-.18,.23s.35,.45,.14,.7c-.22,.25,.35,.58,.1,.81-.25,.23-1.1,.94-1.1,.94,0,0,.75,1.95-.49,2.72-1.25,.77-2.71,2.06-2.71,2.06,0,0-1.33-.94-1.09-2.92"/>
            </g>
            <g>
              <rect class="cls-20" x="124.32" y="107.18" width="36.41" height="54.55" rx="11.09" ry="11.09"/>
              <rect class="cls-15" x="127.57" y="113.7" width="29.27" height="10.67"/>
              <circle class="cls-16" cx="142.37" cy="141.04" r="10.13"/>
              <path class="cls-15" d="M148.18,137.29l-9.56,9.56c-.57,.57-1.5,.57-2.07,0h0c-.57-.57-.57-1.5,0-2.07l9.56-9.56c.57-.57,1.5-.57,2.07,0h0c.57,.57,.57,1.5,0,2.07Z"/>
              <circle class="cls-16" cx="130.18" cy="156.29" r="2.06"/>
              <circle class="cls-9" cx="136.7" cy="156.29" r="2.06"/>
              <path class="cls-16" d="M168.36,114.31h-.63v-12.75h-.61v12.75h-.64v15.94h.64v17.11h-8.87c-.15-.99-1-1.75-2.03-1.75-1.14,0-2.06,.92-2.06,2.06s.92,2.06,2.06,2.06c1.03,0,1.88-.76,2.03-1.75h9.48v-17.72h.63v-15.94Z"/>
              <path class="cls-9" d="M156.22,154.23c.92,0,1.7,.61,1.96,1.45h17.44v-25.86h-.85v-15.94h.85v-12.75h.61v12.75h.78v15.94h-.78v26.47h-17.94c0,1.13-.92,2.05-2.06,2.05s-2.06-.92-2.06-2.06,.92-2.06,2.06-2.06Z"/>
            </g>
          </g>
        </g>
      </g>
    </g>
  </g>
</svg>