<?xml version="1.0" encoding="UTF-8"?>
<svg id="Layer_2" data-name="Layer 2" xmlns="http://www.w3.org/2000/svg" viewBox="0 0 177.14 159">
  <defs>
    <style>
      .cls-1 {
        fill: #00665b;
      }

      .cls-2 {
        fill: #fff;
      }

      .cls-3 {
        fill: #008a7a;
      }

      .cls-4 {
        fill: #f5feff;
      }

      .cls-5 {
        fill: #fcfcff;
      }

      .cls-6 {
        fill: #f1a393;
      }

      .cls-7 {
        fill: #5cc4f7;
      }

      .cls-8 {
        fill: #ed2324;
      }

      .cls-9 {
        fill: #afa8a8;
      }

      .cls-10 {
        fill: #b7b6b6;
      }

      .cls-11 {
        fill: #ff363c;
      }

      .cls-12 {
        fill: #a5dbfd;
      }

      .cls-13 {
        fill: #66140e;
      }

      .cls-14 {
        fill: #ff810d;
      }

      .cls-15 {
        fill: #fdbfb1;
      }

      .cls-16 {
        fill: #f5921d;
      }

      .cls-17 {
        fill: #d1cbcb;
      }

      .cls-18 {
        fill: #e86e0a;
      }

      .cls-19 {
        fill: #136399;
      }

      .cls-20 {
        fill: #07496d;
      }

      .cls-21 {
        fill: #cff1ff;
      }

      .cls-22 {
        fill: #231f20;
      }

      .cls-23 {
        fill: #ea7878;
      }

      .cls-24 {
        fill: #43243a;
      }
    </style>
  </defs>
  <g id="OBJECTS">
    <g>
      <g>
        <path class="cls-21" d="M121.8,1.92s-26.43-7.47-37.12,7.03c-13.34,18.11-17.5,58.96-51.65,60.27C-1.12,70.54-1.12,143.01,42.59,144.22c43.72,1.2,55.62-.44,90.01,6.41,48.26,9.61,48.98-45.81,40.3-68.63-10.89-28.62-50.47-21.38-39.33-39.52C152.87,11.04,121.8,1.92,121.8,1.92Z"/>
        <path class="cls-7" d="M101.39,140.27s41.75-1.16,40.22,1.38c-1.53,2.54,10.26,5.78,19.29,4,9.03-1.78,18.78,7.13,0,7.59-18.78,.47-62.99-6.68-58.04-1.2,4.95,5.48,4.13,6.75-25.08,6.11-29.21-.63-75.15,3.17-67.35-1.59,7.8-4.76,30.76-5.62,19.28-5.19-11.48,.43-29.9-5.12-16.54-8.06,13.36-2.94,41.76-1.03,48.33-1.25,6.57-.21,3.98-1.38-2.55-2.64-6.53-1.27,1.78-3.49,15.74-2.43,13.97,1.06-.56,2.43,3.21,2.86,3.77,.42,23.48,.42,23.48,.42Z"/>
        <g>
          <path class="cls-14" d="M152.12,145.93v-31.01h3.17v-13.55h-1.59v-12.74s-.27-11.14-12.71-11.14h-49.87v17.66h40.64s3.31-.3,3.31,2.01v4.11h-2.41v13.04h2.71v31.61h16.75Z"/>
          <path class="cls-18" d="M131.76,95.15s3.31-.3,3.31,2.01v4.11h-2.41v13.04h2.71v31.61h8.23v-31.11h5.62v-12.44h-5.42v-9.63c0-7.63-9.23-7.63-9.23-7.63h-43.45v10.04h40.64Z"/>
          <rect class="cls-14" x="136.96" y="101.27" width="13.35" height="1.1"/>
        </g>
        <g>
          <path class="cls-14" d="M42.95,145.93v-31.01h-3.17v-13.55h1.59v-12.74s.27-11.14,12.71-11.14h49.87v17.66H63.31s-3.31-.3-3.31,2.01v4.11h2.41v13.04h-2.71v31.61h-16.75Z"/>
          <path class="cls-18" d="M63.31,95.15s-3.31-.3-3.31,2.01v4.11h2.41v13.04h-2.71v31.61h-8.23v-31.11h-5.62v-12.44h5.42v-9.63c0-7.63,9.23-7.63,9.23-7.63h43.45v10.04H63.31Z"/>
          <rect class="cls-14" x="44.77" y="101.27" width="13.35" height="1.1" transform="translate(102.88 203.65) rotate(180)"/>
        </g>
        <g>
          <path class="cls-11" d="M135.44,57.08h-35.39c-.98,0-1.78,.8-1.78,1.78v16.57c0,.98,.8,1.78,1.78,1.78h42.51c.98,0,1.78-.8,1.78-1.78v-16.57c0-.98-.8-1.78-1.78-1.78h-7.12Z"/>
          <path class="cls-8" d="M98.27,64.05v11.37c0,.98,.8,1.78,1.78,1.78h42.51c.98,0,1.78-.8,1.78-1.78v-11.37h-46.07Z"/>
          <rect class="cls-16" x="98.27" y="64.05" width="37.17" height=".76"/>
          <rect class="cls-16" x="135.44" y="64.05" width="8.9" height=".76"/>
          <path class="cls-5" d="M114.2,67.14h0c-.64,0-1.16-.52-1.16-1.16v-3.19c0-.64,.52-1.16,1.16-1.16h0c.64,0,1.16,.52,1.16,1.16v3.19c0,.64-.52,1.16-1.16,1.16Z"/>
          <path class="cls-5" d="M129.5,67.14h0c-.64,0-1.16-.52-1.16-1.16v-3.19c0-.64,.52-1.16,1.16-1.16h0c.64,0,1.16,.52,1.16,1.16v3.19c0,.64-.52,1.16-1.16,1.16Z"/>
          <rect class="cls-16" x="112.9" y="70.82" width="4.94" height="2.13"/>
          <rect class="cls-16" x="125.93" y="70.82" width="4.94" height="2.13"/>
          <path class="cls-16" d="M111.46,57.08v-3.86c0-1.27,1.03-2.3,2.3-2.3h17.99c1.27,0,2.3,1.03,2.3,2.3v3.86h-3.74v-3.27h-15.74v3.27h-3.1Z"/>
        </g>
        <g>
          <rect class="cls-3" x="82.32" y="47.87" width="18.58" height="47.47" transform="translate(183.23 143.21) rotate(180)"/>
          <rect class="cls-1" x="94" y="47.87" width="6.9" height="47.47" transform="translate(194.9 143.21) rotate(180)"/>
          <rect class="cls-3" x="79.58" y="45.3" width="24.33" height="3.45" transform="translate(183.49 94.06) rotate(180)"/>
          <rect class="cls-1" x="85.77" y="36.01" width="17.07" height="9.29" transform="translate(188.62 81.32) rotate(180)"/>
          <rect class="cls-3" x="80.02" y="36.01" width="5.75" height="9.29" transform="translate(165.8 81.32) rotate(180)"/>
          <rect class="cls-3" x="34.99" y="26.99" width="129.27" height="9.02" transform="translate(199.26 63) rotate(180)"/>
          <rect class="cls-1" x="34.99" y="17.97" width="129.27" height="9.02" transform="translate(199.26 44.95) rotate(180)"/>
          <rect class="cls-1" x="22.61" y="13.37" width="12.39" height="28.31" transform="translate(57.6 55.04) rotate(180)"/>
          <rect class="cls-3" x="22.61" y="31.5" width="12.39" height="10.17" transform="translate(57.6 73.18) rotate(180)"/>
        </g>
        <g>
          <g>
            <path class="cls-2" d="M86.39,144.89s-.01,.07-.01,.1c0,.5,.85,.92,1.91,.93,1.06,.02,1.93-.38,1.94-.88l.63-37.19s-1.45-.14-1.93-.12c-.49,.02-1.95,.06-1.95,.06l-.59,37.1Z"/>
            <path class="cls-17" d="M89.12,145.85s.58-.08,.95-.44c.2-.2,.16-.36,.16-.36l.59-37.23-1.49,.86-.22,37.17Z"/>
            <path class="cls-9" d="M88.91,106.88c1.06,.02,1.92,.43,1.91,.93,0,.5-.88,.89-1.94,.88s-1.92-.43-1.91-.93c0-.5,.88-.9,1.94-.88Z"/>
          </g>
          <g>
            <path class="cls-2" d="M82.79,145.01s-.01,.05-.01,.08c0,.4,.85,.74,1.91,.75,1.06,.01,1.93-.3,1.94-.71l.63-29.92s-1.45-.11-1.93-.1c-.49,.01-1.95,.05-1.95,.05l-.59,29.85Z"/>
            <path class="cls-17" d="M85.52,145.79s.58-.07,.95-.36c.2-.16,.16-.29,.16-.29l.59-29.95-1.49,.69-.22,29.91Z"/>
            <path class="cls-9" d="M85.31,114.44c1.06,.01,1.92,.35,1.91,.75,0,.4-.88,.72-1.94,.71-1.06-.01-1.92-.35-1.91-.75,0-.4,.88-.72,1.94-.71Z"/>
          </g>
          <g>
            <path class="cls-2" d="M89.54,145.11s-.01,.06-.01,.09c0,.45,.85,.83,1.91,.85,1.06,.01,1.93-.34,1.94-.8l.63-33.68s-1.45-.13-1.93-.11c-.49,.01-1.95,.06-1.95,.06l-.59,33.59Z"/>
            <path class="cls-17" d="M92.27,145.98s.58-.08,.95-.4c.2-.18,.16-.33,.16-.33l.59-33.71-1.49,.78-.22,33.66Z"/>
            <path class="cls-9" d="M91.92,111.05c1.06,.01,1.92,.39,1.91,.85,0,.45-.88,.81-1.94,.8-1.06-.01-1.92-.39-1.91-.85,0-.45,.88-.81,1.94-.8Z"/>
          </g>
        </g>
        <g>
          <g>
            <path class="cls-2" d="M103.19,142.01s-.07-.01-.1-.01c-.5,0-.92,.85-.93,1.91s.38,1.93,.88,1.94l37.19,.63s.14-1.45,.12-1.93c-.02-.49-.06-1.95-.06-1.95l-37.1-.59Z"/>
            <path class="cls-17" d="M102.23,144.74s.08,.58,.44,.95c.2,.2,.36,.16,.36,.16l37.23,.59-.86-1.49-37.17-.22Z"/>
            <path class="cls-9" d="M141.2,144.53c-.02,1.06-.43,1.92-.93,1.91-.5,0-.89-.88-.88-1.94,.02-1.06,.43-1.92,.93-1.91,.5,0,.89,.88,.88,1.94Z"/>
          </g>
          <g>
            <path class="cls-2" d="M101.08,138.42s-.07-.01-.1-.01c-.5,0-.92,.85-.93,1.91s.38,1.93,.88,1.94l37.19,.63s.14-1.45,.12-1.93c-.02-.49-.06-1.95-.06-1.95l-37.1-.59Z"/>
            <path class="cls-17" d="M100.12,141.15s.08,.58,.44,.95c.2,.2,.36,.16,.36,.16l37.23,.59-.86-1.49-37.17-.22Z"/>
            <path class="cls-9" d="M139.08,140.94c-.02,1.06-.43,1.92-.93,1.91-.5,0-.89-.88-.88-1.94,.02-1.06,.43-1.92,.93-1.91,.5,0,.89,.88,.88,1.94Z"/>
          </g>
          <g>
            <path class="cls-2" d="M99.16,142.01s-.07-.01-.1-.01c-.5,0-.92,.85-.93,1.91s.38,1.93,.88,1.94l37.19,.63s.14-1.45,.12-1.93c-.02-.49-.06-1.95-.06-1.95l-37.1-.59Z"/>
            <path class="cls-17" d="M98.2,144.74s.08,.58,.44,.95c.2,.2,.36,.16,.36,.16l37.23,.59-.86-1.49-37.17-.22Z"/>
            <path class="cls-9" d="M137.17,144.53c-.02,1.06-.43,1.92-.93,1.91-.5,0-.89-.88-.88-1.94,.02-1.06,.43-1.92,.93-1.91,.5,0,.89,.88,.88,1.94Z"/>
          </g>
        </g>
        <g>
          <g>
            <g>
              <path class="cls-20" d="M75.1,55.07s-.78,1.74-1.73,1.88l-1.7-.99,1.72-1.78s1.87,.09,1.72,.89Z"/>
              <g>
                <path class="cls-22" d="M53.12,139.64s-.02,2.94-1.61,3.14c-1.26,.16-1.82,.14-1.99,.12-1.88-.78-5.25,1.06-4.91,3.32,.37,2.45,7.7,.79,7.7,.79,1.34,.06,5.98-.93,5.98-.93l.13-2.98v-2.71l-5.29-.76Z"/>
                <path class="cls-22" d="M67.98,141.02l-.64,4.28s-1.38,2.57,1.1,3.85c2.48,1.28,5.21,.05,5.96-1.1,1.06-1.63,.23-3.91-.12-3.82l-1.41-3.94-4.89,.73Z"/>
                <g>
                  <path class="cls-6" d="M61.98,60.41s.93,1.81,0,3.52l4.69,.6,.86-4.12h-5.55Z"/>
                  <g>
                    <path class="cls-6" d="M61.93,55.19c0,.97-.85,1.77-1.9,1.77s-1.9-.79-1.9-1.77,.85-1.77,1.9-1.77,1.9,.79,1.9,1.77Z"/>
                    <path class="cls-15" d="M59.59,53.29s-.04,5.45,1.7,7.38c1.74,1.93,4.36,2.16,6.56,.69,2.2-1.47,2.57-2.93,2.57-2.93,0,0,1.19-2.06,1.24-2.2,.05-.14,0-3.26,0-3.58s-1.19-2.93-2.11-3.3-3.81-1.93-4.54-1.93-2.89,1.1-3.3,1.65c-.41,.55-1.47,2.52-1.47,2.71s-.64,1.52-.64,1.52Z"/>
                    <path class="cls-15" d="M73.57,57.73c0,.97-.85,1.77-1.9,1.77s-1.9-.79-1.9-1.77,.85-1.77,1.9-1.77,1.9,.79,1.9,1.77Z"/>
                    <path class="cls-24" d="M65.32,49.61s-3.81,.46-4.63,1.74-1.01,3.12-1.01,3.12c0,0-.32-3.16,0-4.13,0,0-2.89-1.6-.78-3.39,2.11-1.79,8.71-1.1,8.71-1.1,0,0-.28-1.74,1.24-.92s3.3,3.58,3.3,3.58c0,0,.92-.32,.78,.37l-.14,.69s2.06,1.28,1.42,2.89c-.64,1.6-.5,2.43-1.7,3.81l-1.83,1.47s.73-5.87-.55-5.91c-1.28-.05-5.23-.6-4.81-2.2Z"/>
                  </g>
                </g>
                <path class="cls-11" d="M70.2,65.42c-.7-.28-1.43-.51-2.15-.71l-.28-1.84s-1.65,.29-2.38,.35c-.44,.04-.71,.38-.85,.66-.1-.29-.29-.63-.67-.74-.71-.21-2.26-.84-2.26-.84l-.28,.75c-1.38-.75-3.99-1.53-7.01,.85-4.47,3.52-4.74,3.61-4.74,3.61,0,0,.47,3.97,.82,5,.37,1.06,2.06,3.35,2.06,3.35l1.85-.62-1.72,17.83s4.72,.09,13.49,.49c5.43,.25,5.36-.73,5.36-.73l-.14-14.11,2.8,2.38s2.52-6.6,4.63-6.83c0,0-4.95-7.41-8.53-8.84Z"/>
                <path class="cls-15" d="M78.29,73.64l1.26,1.68s3.3-4.83,4.16-9.78c0,0,.55-2.81,2.75-3.55,2.2-.73,4.34-3.06,4.71-2.57s0,.73,0,.73c0,0,1.27-.52,1.41,0,.14,.53,0,.83,0,.83,0,0,.21,.53,.06,.87-.15,.34-.45,.69-.45,.69,0,0,.11,.3-.14,.57s-2.06,2.25-3.07,2.84c-1.01,.6-2.66,1.37-2.66,1.37,0,0-2.06,13.79-4.93,14.28-2.87,.49-6.33-2.73-6.33-2.73,0,0,.63-2.88,3.24-5.24Z"/>
                <path class="cls-19" d="M71.37,92.53v-6.06l-4.65-4.81,2.32-16.55-.99-.4-2.82,16.6-7.3-.81s.43-16.36,2.02-17.93c0,0-1.59-1.02-2.26,3.87-.67,4.89-1.34,14.87-1.34,14.87l-3.11,5.07-.37,3.8h-.13s-.06,1.06-.15,2.9h0s0,0,0,0c-.39,8.18-1.3,31.73,.15,46.09,0,0,2.6,3.73,6.18,1.72l2.89-33.23,5.3,33.91s3.15,2.2,6.53-1.03l-2.25-48Z"/>
                <g>
                  <path class="cls-2" d="M82.1,48.26s-.02-.06-.04-.09c-.25-.43-1.2-.35-2.12,.18-.92,.53-1.47,1.32-1.22,1.75l18.52,32.26s1.32-.62,1.72-.88c.41-.26,1.64-1.05,1.64-1.05l-18.5-32.16Z"/>
                  <path class="cls-17" d="M79.27,48.84s-.45,.37-.59,.87c-.07,.27,.04,.39,.04,.39l18.56,32.28,.84-1.5-18.86-32.04Z"/>
                  <path class="cls-9" d="M99.41,82.2c-.92,.53-1.87,.61-2.12,.18-.25-.43,.29-1.22,1.22-1.75,.92-.53,1.87-.61,2.12-.18,.25,.43-.29,1.22-1.22,1.75Z"/>
                </g>
                <path class="cls-15" d="M84.96,65.37c.16,.23,1.99-.13,1.28-1.93-.37-.95-.96-1.56-.37-2.06,.6-.5,.38-1.6,.38-1.6,0,0-2.22,1.39-2.38,3.58-.17,2.19,1.09,2.02,1.09,2.02Z"/>
                <g>
                  <path class="cls-15" d="M47.86,58.52s.05,6.31,.91,7.72l.86,1.41,1.59,5.5s-3.91,3.18-5.2,0-1.1-11.8-1.1-11.8c0,0-3.19-1.22-2.79-4.16,.4-2.93,2.42-2.93,3.19-2.38s1.7,1.02,.77,3.02c0,0,1.15-1.33,1.76,.7Z"/>
                  <path class="cls-17" d="M51.2,47.46l-1.02,2.84-1.9,.32-1.26-1.46,1.02-2.84c-1.19,.2-2.25,1.02-2.69,2.24-.47,1.32-.09,2.74,.86,3.66l-5.54,13.15c-1.45-.11-2.86,.7-3.45,2.11-.5,1.2-.27,2.51,.48,3.47l1.16-2.78,1.92-.23,1.19,1.52-1.16,2.78c1.2-.14,2.3-.9,2.8-2.1,.51-1.22,.26-2.57-.52-3.53l5.43-13.44c1.45,.04,2.83-.84,3.35-2.29,.44-1.22,.14-2.52-.65-3.44Z"/>
                  <path class="cls-10" d="M47.87,53.07s-.87-.05-1.22-.46l-5.32,12.72s.94,.32,1.24,.66l5.3-12.93Z"/>
                  <g>
                    <path class="cls-15" d="M47.49,59.08s1.28-1.59,.49-2.63c-.79-1.04-3.09,.31-2.58,.67,.51,.37,1.06,.18,1.06,.18,0,0-1.04,1.22-.49,1.77,.55,.55,1.07,.75,1.53,0Z"/>
                    <path class="cls-15" d="M45.32,54.8s.48,.33,.4,1.11c-.09,.77-1,.73-1,.73,0,0,.49,.15,.47,.36-.05,.55-.68,.32-.68,.32,0,0,.53,.28,.41,.58-.12,.31-.75,.23-.75,.23,0,0,.47,.17,.19,.41-.28,.24-.86,.12-.86,.12l1.59-3.99,.23,.13Z"/>
                  </g>
                </g>
              </g>
              <path class="cls-19" d="M73.39,54.52c-.9-.05-1.45-1.1-1.17-2.43l-11.79-6.15s3.38-4.26,9.71-2.43c6.33,1.82,5.89,8.79,4.96,11.56,0,0-.4-.47-1.71-.55Z"/>
              <path class="cls-24" d="M72.23,52.09s.48-1.67,.11-2.22c-.37-.55-.96-1.03-.96-1.03,0,0-.04-2.34-1.83-2.85-1.79-.5-7.78-.37-9.1,.21-1.32,.59,2,2.68,2,2.68l3.8,.08s-.5,1.24,.53,1.56c1.03,.32,5.46,1.56,5.46,1.56Z"/>
            </g>
            <path class="cls-8" d="M58.97,62.36c-.4-.15-2.03-.46-4.66,1.54-4.52,3.45-4.74,3.61-4.74,3.61,0,0,.47,3.97,.82,5,.37,1.06,2.06,3.35,2.06,3.35l1.85-.62s2.68-10.73,4.48-12.66c.07-.08,.13-.15,.19-.22Z"/>
            <path class="cls-8" d="M71.3,78.72l2.8,2.38s2.52-6.6,4.63-6.83c0,0-4.01-6-7.42-8.24-.47-.24-.86-.45-1.11-.6-.04-.01-.07-.03-.11-.04-1.36-.2,1.21,13.34,1.21,13.34Z"/>
            <g>
              <path class="cls-20" d="M55.85,141.37h0l1.32,.09c.54-.06,1.12-.23,1.73-.57l2.89-33.23c-2.63,.19-5.94,33.71-5.94,33.71Z"/>
              <path class="cls-20" d="M69.69,142.3c-.01-.07-5.27-34.83-7.9-34.64l5.3,33.91s.76,.53,1.93,.69l.64,.04s.02,0,.02,0Z"/>
            </g>
          </g>
          <path class="cls-13" d="M66.06,53.49s1.64-.69,2.57,.53c0,0-.83-2.08-2.57-.53Z"/>
          <path class="cls-13" d="M60.87,53.58s1.23-1.14,2.44-.27c0,0-1.4-1.72-2.44,.27Z"/>
          <path class="cls-13" d="M67.73,55.5c0,.39,.14,.71,.3,.71s.3-.32,.3-.71-.14-.71-.3-.71-.3,.32-.3,.71Z"/>
          <path class="cls-13" d="M62.16,55.47c0,.41,.14,.74,.31,.74s.31-.33,.31-.74-.14-.74-.31-.74-.31,.33-.31,.74Z"/>
          <path class="cls-23" d="M64.2,56.06s-.27,.72-.75,.79c-.47,.06-.99,.19-.7,.79,.25,.53,1.52,.54,1.64-.24s-.19-1.34-.19-1.34Z"/>
          <path class="cls-2" d="M63.18,59.14l3.65-.07s.45,1.27-1.12,1.25c-1.57-.02-2.53-1.18-2.53-1.18Z"/>
        </g>
        <g>
          <path class="cls-7" d="M54.46,100.38H25.1s-1.46,6.94,5.6,6.94,6.09,8.65,6.09,8.65l-1.71,30.09h9.38l-1.71-30.09s-.97-8.65,6.09-8.65,5.6-6.94,5.6-6.94Z"/>
          <path class="cls-4" d="M45.6,107.33c7.07,0,5.6-6.94,5.6-6.94H25.1s-1.46,6.94,5.6,6.94,6.09,8.65,6.09,8.65l-1.71,30.09h6.12l-1.71-30.09s-.97-8.65,6.09-8.65Z"/>
          <path class="cls-12" d="M45.6,107.33c7.07,0,5.6-6.94,5.6-6.94H26.73s-1.46,6.94,5.6,6.94,6.09,8.65,6.09,8.65l-1.71,30.09h4.49l-1.71-30.09s-.97-8.65,6.09-8.65Z"/>
        </g>
      </g>
      <g>
        <path class="cls-1" d="M27.75,111.02c-11.87,9.64-12.52,21.31-11.43,28.51-1.76-5.76-4.95-12.94-10.12-14.5-18.15-5.47,9.05,11.97,11.94,22.14,0,0-.09-.6-.3-1.61,.18,.48,.3,.74,.3,.74-3.08-15.41,28.26-50.42,9.62-35.28Z"/>
        <path class="cls-1" d="M27.05,135.93c-6.98-.91-8.91,10.36-8.91,10.36,2.84-6.84,7.95-5.89,10.26-7.78s-1.34-2.59-1.34-2.59Z"/>
      </g>
      <g>
        <path class="cls-1" d="M102.85,138.45c-7.96,1.6-4.24,10.08-3.66,13.9-.94-3.06-2.53-8.08-5.37-7.69-8.29,1.13,4.8,6.36,6.34,11.75,0,0-.05-.32-.16-.86,.09,.26,.16,.39,.16,.39-1.63-8.18,11.32-19.23,2.7-17.49Z"/>
        <path class="cls-1" d="M104.88,150.44c-3.71-.48-4.73,5.5-4.73,5.5,1.51-3.63,4.22-3.13,5.44-4.13s-.71-1.37-.71-1.37Z"/>
      </g>
      <g>
        <path class="cls-1" d="M150.77,137.85s-3.6,1.27-.97,2.83c2.63,1.57,7.69-.17,11.62,6.35,0,0-3.68-11.17-10.64-9.18Z"/>
        <path class="cls-1" d="M161.65,147.33c2.18-10.96,25.97-31.92,8.67-23.74-5.03,2.38-7.17,10.16-8.08,16.29,.01-7.49-.24-27.13-15.97-27.25-16.76-.12,15.94,18.27,15.16,34.41,0,0,.08-.28,.19-.8-.03,.57-.04,1.02-.05,1.31-.05,.11-.09,.21-.14,.32,0,0,.05-.05,.14-.14,0,.13,0,.2,0,.2,0-.08,.02-.15,.04-.23,.88-.86,5.04-4.67,8.5-3.45,3.83,1.35-3.8-7.06-8.44,3.09Z"/>
      </g>
    </g>
  </g>
</svg>